<?xml version="1.0" encoding="UTF-8" standalone="no"?>
<!-- Created with Inkscape (http://www.inkscape.org/) -->

<svg
   xmlns:dc="http://purl.org/dc/elements/1.1/"
   xmlns:cc="http://creativecommons.org/ns#"
   xmlns:rdf="http://www.w3.org/1999/02/22-rdf-syntax-ns#"
   xmlns:svg="http://www.w3.org/2000/svg"
   xmlns="http://www.w3.org/2000/svg"
   xmlns:sodipodi="http://sodipodi.sourceforge.net/DTD/sodipodi-0.dtd"
   xmlns:inkscape="http://www.inkscape.org/namespaces/inkscape"
   id="svg4136"
   version="1.1"
   inkscape:version="0.91 r13725"
   xml:space="preserve"
   width="1999.1595"
   height="255.72636"
   viewBox="0 0 1999.1595 255.72637"
   sodipodi:docname="01-cavity-in-T2_def.svg"><metadata
     id="metadata4142"><rdf:RDF><cc:Work
         rdf:about=""><dc:format>image/svg+xml</dc:format><dc:type
           rdf:resource="http://purl.org/dc/dcmitype/StillImage" /><dc:title></dc:title></cc:Work></rdf:RDF></metadata><defs
     id="defs4140"><marker
       inkscape:stockid="Arrow1Lstart"
       orient="auto"
       refY="0"
       refX="0"
       id="Arrow1Lstart"
       style="overflow:visible"
       inkscape:isstock="true"><path
         id="path5182"
         d="M 0,0 5,-5 -12.5,0 5,5 0,0 Z"
         style="fill:#000000;fill-opacity:1;fill-rule:evenodd;stroke:#000000;stroke-width:1pt;stroke-opacity:1"
         transform="matrix(0.8,0,0,0.8,10,0)"
         inkscape:connector-curvature="0" /></marker><clipPath
       clipPathUnits="userSpaceOnUse"
       id="clipPath4150"><path
         d="m 0,0 1920,0 0,1080 L 0,1080 0,0 Z"
         id="path4152"
         inkscape:connector-curvature="0" /></clipPath><clipPath
       clipPathUnits="userSpaceOnUse"
       id="clipPath4194"><path
         d="m 1634.06,1061.66 30.62,0 0,-30.63 -30.62,0 0,30.63 z"
         id="path4196"
         inkscape:connector-curvature="0" /></clipPath><clipPath
       clipPathUnits="userSpaceOnUse"
       id="clipPath4198"><path
         d="m 1634.06,1031.03 30.62,0 0,30.63 -30.62,0 0,-30.63 z"
         id="path4200"
         inkscape:connector-curvature="0" /></clipPath><clipPath
       clipPathUnits="userSpaceOnUse"
       id="clipPath4242"><path
         d="m 160.669,1080 c 9.678,-20.966 25.98,-31.775 25.98,-31.775 l 0,0 9.912,13.079 c -0.022,0.025 -0.044,0.049 -0.066,0.072 l 0,0 c 5.417,-5.843 10.776,-9.658 10.776,-9.658 l 0,0 -11.111,-20.537 c -19.36,10.267 -31.922,23.041 -31.922,23.041 l 0,0 c 0,0 0.021,0.022 -9.027,10.543 l 0,0 c -7.281,9.091 -9.217,15.235 -9.217,15.235 l 0,0 -145.994,0 0,-67 1599.059,0 0,67 -1438.39,0 z m 34.882,-17.583 c 0.068,-0.076 0.135,-0.151 0.202,-0.226 l 0,0 c -0.068,0.075 -0.134,0.15 -0.202,0.226"
         id="path4244"
         inkscape:connector-curvature="0" /></clipPath><linearGradient
       x1="0"
       y1="0"
       x2="1"
       y2="0"
       gradientUnits="userSpaceOnUse"
       gradientTransform="matrix(1599.0585,0,0,-1599.0585,0,1046.5)"
       spreadMethod="pad"
       id="linearGradient4250"><stop
         style="stop-opacity:1;stop-color:#005b9d"
         offset="0"
         id="stop4252" /><stop
         style="stop-opacity:1;stop-color:#2e79ae"
         offset="1"
         id="stop4254" /></linearGradient><clipPath
       clipPathUnits="userSpaceOnUse"
       id="clipPath4266"><path
         d="m 500.521,531.333 -7.086,-29.035 -40.984,-167.937 0,-78.251 1053.41,0 67.167,275.223 -1072.507,0 z"
         id="path4268"
         inkscape:connector-curvature="0" /></clipPath><clipPath
       clipPathUnits="userSpaceOnUse"
       id="clipPath4462"><path
         d="m 0,1080 1920,0 L 1920,0 0,0 0,1080 Z"
         id="path4464"
         inkscape:connector-curvature="0" /></clipPath><clipPath
       clipPathUnits="userSpaceOnUse"
       id="clipPath4594"><path
         d="m 0,1080 1920,0 L 1920,0 0,0 0,1080 Z"
         id="path4596"
         inkscape:connector-curvature="0" /></clipPath><clipPath
       clipPathUnits="userSpaceOnUse"
       id="clipPath4622"><path
         d="m 0,1080 1920,0 L 1920,0 0,0 0,1080 Z"
         id="path4624"
         inkscape:connector-curvature="0" /></clipPath></defs><sodipodi:namedview
     pagecolor="#ffffff"
     bordercolor="#666666"
     borderopacity="1"
     objecttolerance="10"
     gridtolerance="10"
     guidetolerance="10"
     inkscape:pageopacity="0"
     inkscape:pageshadow="2"
     inkscape:window-width="1920"
     inkscape:window-height="1052"
     id="namedview4138"
     showgrid="false"
     showguides="false"
     inkscape:zoom="0.50000001"
     inkscape:cx="931.20973"
     inkscape:cy="-297.29479"
     inkscape:window-x="1927"
     inkscape:window-y="0"
     inkscape:window-maximized="1"
     inkscape:current-layer="g4144"
     inkscape:snap-bbox="true"
     inkscape:bbox-nodes="true"
     inkscape:bbox-paths="true"
     inkscape:snap-bbox-edge-midpoints="true"
     inkscape:snap-bbox-midpoints="true"
     inkscape:object-paths="true"
     inkscape:object-nodes="true"
     inkscape:snap-smooth-nodes="true"
     inkscape:snap-intersection-paths="true"
     inkscape:snap-midpoints="true"
     inkscape:snap-others="true"
     inkscape:snap-object-midpoints="true"
     inkscape:snap-center="true"
     inkscape:snap-text-baseline="true"
     fit-margin-top="0"
     fit-margin-left="0"
     fit-margin-right="0"
     fit-margin-bottom="0" /><g
     id="g4144"
     inkscape:groupmode="layer"
     inkscape:label="presentation_Q5T2off"
     transform="matrix(1.25,0,0,-1.25,-200.40587,1204.0436)"><path
       inkscape:connector-curvature="0"
       id="path4412"
       style="fill:none;stroke:#231f20;stroke-width:3;stroke-linecap:butt;stroke-linejoin:miter;stroke-miterlimit:10;stroke-dasharray:none;stroke-opacity:1"
       d="m 213.13357,861.3986 1503.70063,0"
       sodipodi:nodetypes="cc" /><path
       inkscape:connector-curvature="0"
       id="path4416"
       style="fill:#231f20;fill-opacity:1;fill-rule:nonzero;stroke:none"
       d="m 247.266,855.4195 0,11.958 0,-11.958 z" /><path
       inkscape:connector-curvature="0"
       id="path4420"
       style="fill:none;stroke:#231f20;stroke-width:0.5;stroke-linecap:butt;stroke-linejoin:round;stroke-miterlimit:10;stroke-dasharray:none;stroke-opacity:1"
       d="m 247.2664,867.3775 0,-11.958" /><path
       inkscape:connector-curvature="0"
       id="path4424"
       style="fill:#231f20;fill-opacity:1;fill-rule:nonzero;stroke:none"
       d="m 1672.5411,855.4195 0,11.958 0,-11.958 z" /><path
       inkscape:connector-curvature="0"
       id="path4428"
       style="fill:none;stroke:#231f20;stroke-width:0.5;stroke-linecap:butt;stroke-linejoin:round;stroke-miterlimit:10;stroke-dasharray:none;stroke-opacity:1"
       d="m 1672.5413,867.3775 0,-11.958" /><path
       inkscape:connector-curvature="0"
       id="path4432"
       style="fill:#ffee12;fill-opacity:1;fill-rule:nonzero;stroke:none"
       d="m 160.3247,867.3775 0,-55.707 121.861,0 0,111.414 -121.861,0 0,-55.707 z" /><path
       d="m 342.047,811.671 35.632,0 0,111.413 -35.632,0 0,-111.413 z"
       style="fill:#ec1d23;fill-opacity:1;fill-rule:nonzero;stroke:none"
       id="path4434"
       inkscape:connector-curvature="0" /><path
       d="m 399.486,811.671 22.804,0 0,111.413 -22.804,0 0,-111.413 z"
       style="fill:#76c92e;fill-opacity:1;fill-rule:nonzero;stroke:none"
       id="path4436"
       inkscape:connector-curvature="0" /><path
       d="m 444.097,811.671 71.264,0 0,111.413 -71.264,0 0,-111.413 z"
       style="fill:#ec1d23;fill-opacity:1;fill-rule:nonzero;stroke:none"
       id="path4438"
       inkscape:connector-curvature="0" /><path
       d="m 537.167,811.671 22.804,0 0,111.413 -22.804,0 0,-111.413 z"
       style="fill:#76c92e;fill-opacity:1;fill-rule:nonzero;stroke:none"
       id="path4440"
       inkscape:connector-curvature="0" /><path
       d="m 581.779,811.671 28.505,0 0,111.413 -28.505,0 0,-111.413 z"
       style="fill:#ec1d23;fill-opacity:1;fill-rule:nonzero;stroke:none"
       id="path4442"
       inkscape:connector-curvature="0" /><path
       d="m 1309.524,811.671 28.506,0 0,111.413 -28.506,0 0,-111.413 z"
       style="fill:#ec1d23;fill-opacity:1;fill-rule:nonzero;stroke:none"
       id="path4444"
       inkscape:connector-curvature="0" /><path
       d="m 1359.836,811.671 22.804,0 0,111.413 -22.804,0 0,-111.413 z"
       style="fill:#76c92e;fill-opacity:1;fill-rule:nonzero;stroke:none"
       id="path4446"
       inkscape:connector-curvature="0" /><path
       d="m 1404.447,811.671 71.264,0 0,111.413 -71.264,0 0,-111.413 z"
       style="fill:#ec1d23;fill-opacity:1;fill-rule:nonzero;stroke:none"
       id="path4448"
       inkscape:connector-curvature="0" /><path
       d="m 1497.518,811.671 22.804,0 0,111.413 -22.804,0 0,-111.413 z"
       style="fill:#76c92e;fill-opacity:1;fill-rule:nonzero;stroke:none"
       id="path4450"
       inkscape:connector-curvature="0" /><path
       d="m 1542.129,811.671 35.632,0 0,111.413 -35.632,0 0,-111.413 z"
       style="fill:#ec1d23;fill-opacity:1;fill-rule:nonzero;stroke:none"
       id="path4452"
       inkscape:connector-curvature="0" /><path
       inkscape:connector-curvature="0"
       id="path4456"
       style="fill:#ffee12;fill-opacity:1;fill-rule:nonzero;stroke:none"
       d="m 1759.6523,867.3775 0,55.707 -121.861,0 0,-111.414 121.861,0 0,55.707 z" /><path
       inkscape:connector-curvature="0"
       id="path4468"
       style="fill:#231f20;fill-opacity:1;fill-rule:nonzero;stroke:none"
       d="m 215.8976,948.7651 0,-9.806 5.803,0 c 1.946,0 3.378,0.404 4.333,1.212 0.918,0.808 1.396,2.02 1.396,3.71 0,1.652 -0.478,2.864 -1.396,3.672 -0.955,0.808 -2.387,1.212 -4.333,1.212 l -5.803,0 m 0,11.018 0,-8.08 5.362,0 c 1.763,0 3.048,0.331 3.929,0.992 0.882,0.661 1.323,1.653 1.323,3.048 0,1.322 -0.441,2.35 -1.323,3.011 -0.881,0.661 -2.166,1.029 -3.929,1.029 l -5.362,0 m -3.636,2.975 9.255,0 c 2.754,0 4.884,-0.588 6.39,-1.726 1.469,-1.176 2.241,-2.792 2.241,-4.885 0,-1.653 -0.404,-2.975 -1.176,-3.93 -0.771,-0.955 -1.873,-1.579 -3.342,-1.799 1.763,-0.404 3.159,-1.212 4.15,-2.424 0.955,-1.212 1.469,-2.718 1.469,-4.517 0,-2.424 -0.844,-4.261 -2.46,-5.546 -1.616,-1.322 -3.93,-1.946 -6.905,-1.946 l -9.622,0 0,26.773" /><path
       inkscape:connector-curvature="0"
       id="path4472"
       style="fill:#231f20;fill-opacity:1;fill-rule:nonzero;stroke:none"
       d="m 325.2699,960.2969 c -2.644,0 -4.738,-0.992 -6.28,-2.938 -1.543,-1.983 -2.314,-4.628 -2.314,-8.006 0,-3.379 0.771,-6.06 2.314,-8.006 1.542,-1.984 3.636,-2.938 6.28,-2.938 2.607,0 4.701,0.954 6.243,2.938 1.543,1.946 2.314,4.627 2.314,8.006 0,3.378 -0.771,6.023 -2.314,8.006 -1.542,1.946 -3.636,2.938 -6.243,2.938 m 5.068,-23.835 4.774,-5.178 -4.37,0 -3.966,4.297 c -0.404,0 -0.698,-0.037 -0.918,-0.037 -0.221,0 -0.404,-0.037 -0.588,-0.037 -3.783,0 -6.794,1.249 -9.035,3.746 -2.277,2.498 -3.378,5.84 -3.378,10.1 0,4.223 1.101,7.602 3.378,10.099 2.241,2.498 5.252,3.783 9.035,3.783 3.746,0 6.721,-1.285 8.998,-3.783 2.24,-2.497 3.378,-5.876 3.378,-10.099 0,-3.122 -0.624,-5.803 -1.873,-8.006 -1.248,-2.204 -3.084,-3.857 -5.435,-4.885" /><path
       inkscape:connector-curvature="0"
       id="path4476"
       style="fill:#231f20;fill-opacity:1;fill-rule:nonzero;stroke:none"
       d="m 354.6136,950.4178 c 1.726,-0.367 3.085,-1.138 4.04,-2.314 0.955,-1.175 1.469,-2.644 1.469,-4.333 0,-2.645 -0.918,-4.701 -2.718,-6.134 -1.836,-1.432 -4.407,-2.13 -7.749,-2.13 -1.139,0 -2.314,0.111 -3.489,0.331 -1.175,0.184 -2.424,0.514 -3.672,0.955 l 0,3.489 c 0.991,-0.588 2.093,-1.029 3.305,-1.322 1.175,-0.294 2.424,-0.441 3.746,-0.441 2.277,0 4.003,0.441 5.178,1.322 1.175,0.881 1.8,2.203 1.8,3.93 0,1.542 -0.551,2.791 -1.653,3.672 -1.102,0.882 -2.644,1.359 -4.627,1.359 l -3.122,0 0,2.975 3.269,0 c 1.763,0 3.121,0.33 4.076,1.065 0.955,0.698 1.432,1.726 1.432,3.085 0,1.359 -0.514,2.424 -1.469,3.158 -0.991,0.735 -2.387,1.102 -4.186,1.102 -0.992,0 -2.057,-0.11 -3.195,-0.331 -1.139,-0.22 -2.388,-0.55 -3.746,-0.991 l 0,3.232 c 1.358,0.367 2.644,0.661 3.856,0.844 1.175,0.184 2.313,0.294 3.415,0.294 2.718,0 4.885,-0.624 6.501,-1.873 1.616,-1.249 2.424,-2.938 2.424,-5.068 0,-1.469 -0.441,-2.718 -1.286,-3.746 -0.845,-1.028 -2.057,-1.763 -3.599,-2.13" /><path
       inkscape:connector-curvature="0"
       id="path4480"
       style="fill:#231f20;fill-opacity:1;fill-rule:nonzero;stroke:none"
       d="m 362.9873,962.7576 22.623,0 0,-3.048 -9.512,0 0,-23.725 -3.636,0 0,23.725 -9.475,0 0,3.048 z" /><path
       inkscape:connector-curvature="0"
       id="path4484"
       style="fill:#231f20;fill-opacity:1;fill-rule:nonzero;stroke:none"
       d="m 392.5512,939.0329 12.633,0 0,-3.048 -17.004,0 0,3.048 c 1.359,1.395 3.232,3.305 5.62,5.729 2.35,2.387 3.856,3.93 4.48,4.628 1.175,1.285 1.983,2.387 2.424,3.305 0.441,0.881 0.698,1.799 0.698,2.681 0,1.396 -0.514,2.571 -1.506,3.452 -0.992,0.881 -2.277,1.359 -3.893,1.359 -1.138,0 -2.35,-0.22 -3.599,-0.588 -1.249,-0.404 -2.608,-0.991 -4.04,-1.799 l 0,3.672 c 1.469,0.588 2.828,1.029 4.077,1.322 1.248,0.294 2.424,0.441 3.489,0.441 2.754,0 4.958,-0.698 6.61,-2.093 1.653,-1.396 2.498,-3.232 2.498,-5.546 0,-1.102 -0.221,-2.167 -0.625,-3.122 -0.404,-0.991 -1.138,-2.166 -2.24,-3.488 -0.294,-0.368 -1.249,-1.359 -2.865,-3.012 -1.616,-1.653 -3.856,-3.966 -6.757,-6.941" /><path
       inkscape:connector-curvature="0"
       id="path4488"
       style="fill:#231f20;fill-opacity:1;fill-rule:nonzero;stroke:none"
       d="m 445.1357,960.2969 c -2.644,0 -4.738,-0.992 -6.28,-2.938 -1.543,-1.983 -2.314,-4.628 -2.314,-8.006 0,-3.379 0.771,-6.06 2.314,-8.006 1.542,-1.984 3.636,-2.938 6.28,-2.938 2.607,0 4.701,0.954 6.243,2.938 1.543,1.946 2.314,4.627 2.314,8.006 0,3.378 -0.771,6.023 -2.314,8.006 -1.542,1.946 -3.636,2.938 -6.243,2.938 m 5.068,-23.835 4.774,-5.178 -4.37,0 -3.966,4.297 c -0.404,0 -0.698,-0.037 -0.918,-0.037 -0.221,0 -0.404,-0.037 -0.588,-0.037 -3.783,0 -6.794,1.249 -9.035,3.746 -2.277,2.498 -3.378,5.84 -3.378,10.1 0,4.223 1.101,7.602 3.378,10.099 2.241,2.498 5.252,3.783 9.035,3.783 3.746,0 6.721,-1.285 8.998,-3.783 2.24,-2.497 3.378,-5.876 3.378,-10.099 0,-3.122 -0.624,-5.803 -1.873,-8.006 -1.248,-2.204 -3.084,-3.857 -5.435,-4.885" /><path
       inkscape:connector-curvature="0"
       id="path4492"
       style="fill:#231f20;fill-opacity:1;fill-rule:nonzero;stroke:none"
       d="m 473.451,959.5993 -9.145,-14.286 9.145,0 0,14.286 m -0.955,3.158 4.554,0 0,-17.444 3.82,0 0,-3.012 -3.82,0 0,-6.317 -3.599,0 0,6.317 -12.083,0 0,3.489 11.128,16.967 z" /><path
       inkscape:connector-curvature="0"
       id="path4496"
       style="fill:#231f20;fill-opacity:1;fill-rule:nonzero;stroke:none"
       d="m 482.8528,962.7576 22.623,0 0,-3.048 -9.512,0 0,-23.725 -3.636,0 0,23.725 -9.475,0 0,3.048 z" /><path
       inkscape:connector-curvature="0"
       id="path4500"
       style="fill:#231f20;fill-opacity:1;fill-rule:nonzero;stroke:none"
       d="m 512.417,939.0329 12.633,0 0,-3.048 -17.004,0 0,3.048 c 1.359,1.395 3.232,3.305 5.62,5.729 2.35,2.387 3.856,3.93 4.48,4.628 1.175,1.285 1.983,2.387 2.424,3.305 0.441,0.881 0.698,1.799 0.698,2.681 0,1.396 -0.514,2.571 -1.506,3.452 -0.992,0.881 -2.277,1.359 -3.893,1.359 -1.138,0 -2.35,-0.22 -3.599,-0.588 -1.249,-0.404 -2.608,-0.991 -4.04,-1.799 l 0,3.672 c 1.469,0.588 2.828,1.029 4.077,1.322 1.248,0.294 2.424,0.441 3.489,0.441 2.754,0 4.958,-0.698 6.61,-2.093 1.653,-1.396 2.498,-3.232 2.498,-5.546 0,-1.102 -0.221,-2.167 -0.625,-3.122 -0.404,-0.991 -1.138,-2.166 -2.24,-3.488 -0.294,-0.368 -1.249,-1.359 -2.865,-3.012 -1.616,-1.653 -3.856,-3.966 -6.757,-6.941" /><path
       inkscape:connector-curvature="0"
       id="path4504"
       style="fill:#231f20;fill-opacity:1;fill-rule:nonzero;stroke:none"
       d="m 561.4379,960.2969 c -2.644,0 -4.738,-0.992 -6.28,-2.938 -1.543,-1.983 -2.314,-4.628 -2.314,-8.006 0,-3.379 0.771,-6.06 2.314,-8.006 1.542,-1.984 3.636,-2.938 6.28,-2.938 2.607,0 4.701,0.954 6.243,2.938 1.543,1.946 2.314,4.627 2.314,8.006 0,3.378 -0.771,6.023 -2.314,8.006 -1.542,1.946 -3.636,2.938 -6.243,2.938 m 5.068,-23.835 4.774,-5.178 -4.37,0 -3.966,4.297 c -0.404,0 -0.698,-0.037 -0.918,-0.037 -0.221,0 -0.404,-0.037 -0.588,-0.037 -3.783,0 -6.794,1.249 -9.035,3.746 -2.277,2.498 -3.378,5.84 -3.378,10.1 0,4.223 1.101,7.602 3.378,10.099 2.241,2.498 5.252,3.783 9.035,3.783 3.746,0 6.721,-1.285 8.998,-3.783 2.24,-2.497 3.378,-5.876 3.378,-10.099 0,-3.122 -0.624,-5.803 -1.873,-8.006 -1.248,-2.204 -3.084,-3.857 -5.435,-4.885" /><path
       inkscape:connector-curvature="0"
       id="path4508"
       style="fill:#231f20;fill-opacity:1;fill-rule:nonzero;stroke:none"
       d="m 579.8373,962.7576 14.213,0 0,-3.048 -10.908,0 0,-6.574 c 0.515,0.184 1.066,0.33 1.58,0.404 0.514,0.073 1.065,0.147 1.579,0.147 2.974,0 5.325,-0.845 7.088,-2.461 1.763,-1.653 2.644,-3.856 2.644,-6.647 0,-2.902 -0.918,-5.142 -2.717,-6.721 -1.8,-1.579 -4.334,-2.35 -7.566,-2.35 -1.138,0 -2.277,0.11 -3.452,0.257 -1.176,0.183 -2.351,0.44 -3.599,0.844 l 0,3.636 c 1.065,-0.587 2.166,-1.028 3.342,-1.322 1.138,-0.294 2.35,-0.404 3.636,-0.404 2.056,0 3.709,0.514 4.921,1.616 1.175,1.102 1.799,2.571 1.799,4.444 0,1.836 -0.624,3.305 -1.799,4.407 -1.212,1.102 -2.865,1.652 -4.921,1.652 -0.955,0 -1.947,-0.11 -2.902,-0.33 -0.955,-0.22 -1.946,-0.551 -2.938,-0.992 l 0,13.442" /><path
       inkscape:connector-curvature="0"
       id="path4512"
       style="fill:#231f20;fill-opacity:1;fill-rule:nonzero;stroke:none"
       d="m 599.1553,962.7576 22.623,0 0,-3.048 -9.512,0 0,-23.725 -3.636,0 0,23.725 -9.475,0 0,3.048 z" /><path
       inkscape:connector-curvature="0"
       id="path4516"
       style="fill:#231f20;fill-opacity:1;fill-rule:nonzero;stroke:none"
       d="m 628.7192,939.0329 12.633,0 0,-3.048 -17.004,0 0,3.048 c 1.359,1.395 3.232,3.305 5.62,5.729 2.35,2.387 3.856,3.93 4.48,4.628 1.175,1.285 1.983,2.387 2.424,3.305 0.441,0.881 0.698,1.799 0.698,2.681 0,1.396 -0.514,2.571 -1.506,3.452 -0.992,0.881 -2.277,1.359 -3.893,1.359 -1.138,0 -2.35,-0.22 -3.599,-0.588 -1.249,-0.404 -2.608,-0.991 -4.04,-1.799 l 0,3.672 c 1.469,0.588 2.828,1.029 4.077,1.322 1.248,0.294 2.424,0.441 3.489,0.441 2.754,0 4.958,-0.698 6.61,-2.093 1.653,-1.396 2.498,-3.232 2.498,-5.546 0,-1.102 -0.221,-2.167 -0.625,-3.122 -0.404,-0.991 -1.138,-2.166 -2.24,-3.488 -0.294,-0.368 -1.249,-1.359 -2.865,-3.012 -1.616,-1.653 -3.856,-3.966 -6.757,-6.941" /><path
       inkscape:connector-curvature="0"
       id="path4520"
       style="fill:#231f20;fill-opacity:1;fill-rule:nonzero;stroke:none"
       d="m 1289.1832,960.2969 c -2.644,0 -4.738,-0.992 -6.28,-2.938 -1.543,-1.983 -2.314,-4.628 -2.314,-8.006 0,-3.379 0.771,-6.06 2.314,-8.006 1.542,-1.984 3.636,-2.938 6.28,-2.938 2.607,0 4.701,0.954 6.243,2.938 1.543,1.946 2.314,4.627 2.314,8.006 0,3.378 -0.771,6.023 -2.314,8.006 -1.542,1.946 -3.636,2.938 -6.243,2.938 m 5.068,-23.835 4.774,-5.178 -4.37,0 -3.966,4.297 c -0.404,0 -0.698,-0.037 -0.918,-0.037 -0.221,0 -0.404,-0.037 -0.588,-0.037 -3.783,0 -6.794,1.249 -9.035,3.746 -2.277,2.498 -3.378,5.84 -3.378,10.1 0,4.223 1.101,7.602 3.378,10.099 2.241,2.498 5.252,3.783 9.035,3.783 3.746,0 6.721,-1.285 8.998,-3.783 2.24,-2.497 3.378,-5.876 3.378,-10.099 0,-3.122 -0.624,-5.803 -1.873,-8.006 -1.248,-2.204 -3.084,-3.857 -5.435,-4.885" /><path
       inkscape:connector-curvature="0"
       id="path4524"
       style="fill:#231f20;fill-opacity:1;fill-rule:nonzero;stroke:none"
       d="m 1307.5826,962.7576 14.213,0 0,-3.048 -10.908,0 0,-6.574 c 0.515,0.184 1.066,0.33 1.58,0.404 0.514,0.073 1.065,0.147 1.579,0.147 2.974,0 5.325,-0.845 7.088,-2.461 1.763,-1.653 2.644,-3.856 2.644,-6.647 0,-2.902 -0.918,-5.142 -2.717,-6.721 -1.8,-1.579 -4.334,-2.35 -7.566,-2.35 -1.138,0 -2.277,0.11 -3.452,0.257 -1.176,0.183 -2.351,0.44 -3.599,0.844 l 0,3.636 c 1.065,-0.587 2.166,-1.028 3.342,-1.322 1.138,-0.294 2.35,-0.404 3.636,-0.404 2.056,0 3.709,0.514 4.921,1.616 1.175,1.102 1.799,2.571 1.799,4.444 0,1.836 -0.624,3.305 -1.799,4.407 -1.212,1.102 -2.865,1.652 -4.921,1.652 -0.955,0 -1.947,-0.11 -2.902,-0.33 -0.955,-0.22 -1.946,-0.551 -2.938,-0.992 l 0,13.442" /><path
       inkscape:connector-curvature="0"
       id="path4528"
       style="fill:#231f20;fill-opacity:1;fill-rule:nonzero;stroke:none"
       d="m 1326.9006,962.7576 22.623,0 0,-3.048 -9.512,0 0,-23.725 -3.636,0 0,23.725 -9.475,0 0,3.048 z" /><path
       inkscape:connector-curvature="0"
       id="path4532"
       style="fill:#231f20;fill-opacity:1;fill-rule:nonzero;stroke:none"
       d="m 1356.4646,939.0329 12.633,0 0,-3.048 -17.004,0 0,3.048 c 1.359,1.395 3.232,3.305 5.62,5.729 2.35,2.387 3.856,3.93 4.48,4.628 1.175,1.285 1.983,2.387 2.424,3.305 0.441,0.881 0.698,1.799 0.698,2.681 0,1.396 -0.514,2.571 -1.506,3.452 -0.992,0.881 -2.277,1.359 -3.893,1.359 -1.139,0 -2.35,-0.22 -3.599,-0.588 -1.249,-0.404 -2.608,-0.991 -4.04,-1.799 l 0,3.672 c 1.469,0.588 2.828,1.029 4.077,1.322 1.248,0.294 2.423,0.441 3.489,0.441 2.754,0 4.958,-0.698 6.61,-2.093 1.653,-1.396 2.498,-3.232 2.498,-5.546 0,-1.102 -0.221,-2.167 -0.625,-3.122 -0.404,-0.991 -1.138,-2.166 -2.24,-3.488 -0.294,-0.368 -1.249,-1.359 -2.865,-3.012 -1.616,-1.653 -3.856,-3.966 -6.757,-6.941" /><path
       inkscape:connector-curvature="0"
       id="path4536"
       style="fill:#231f20;fill-opacity:1;fill-rule:nonzero;stroke:none"
       d="m 1405.4857,960.2969 c -2.644,0 -4.738,-0.992 -6.28,-2.938 -1.543,-1.983 -2.314,-4.628 -2.314,-8.006 0,-3.379 0.771,-6.06 2.314,-8.006 1.542,-1.984 3.636,-2.938 6.28,-2.938 2.607,0 4.701,0.954 6.243,2.938 1.543,1.946 2.314,4.627 2.314,8.006 0,3.378 -0.771,6.023 -2.314,8.006 -1.542,1.946 -3.636,2.938 -6.243,2.938 m 5.068,-23.835 4.774,-5.178 -4.37,0 -3.967,4.297 c -0.403,0 -0.697,-0.037 -0.917,-0.037 -0.221,0 -0.405,-0.037 -0.588,-0.037 -3.783,0 -6.794,1.249 -9.035,3.746 -2.277,2.498 -3.378,5.84 -3.378,10.1 0,4.223 1.101,7.602 3.378,10.099 2.241,2.498 5.252,3.783 9.035,3.783 3.746,0 6.721,-1.285 8.998,-3.783 2.24,-2.497 3.378,-5.876 3.378,-10.099 0,-3.122 -0.624,-5.803 -1.873,-8.006 -1.248,-2.204 -3.085,-3.857 -5.435,-4.885" /><path
       inkscape:connector-curvature="0"
       id="path4540"
       style="fill:#231f20;fill-opacity:1;fill-rule:nonzero;stroke:none"
       d="m 1433.801,959.5993 -9.145,-14.286 9.145,0 0,14.286 m -0.955,3.158 4.554,0 0,-17.444 3.82,0 0,-3.012 -3.82,0 0,-6.317 -3.599,0 0,6.317 -12.083,0 0,3.489 11.128,16.967 z" /><path
       inkscape:connector-curvature="0"
       id="path4544"
       style="fill:#231f20;fill-opacity:1;fill-rule:nonzero;stroke:none"
       d="m 1443.2031,962.7576 22.623,0 0,-3.048 -9.512,0 0,-23.725 -3.636,0 0,23.725 -9.475,0 0,3.048 z" /><path
       inkscape:connector-curvature="0"
       id="path4548"
       style="fill:#231f20;fill-opacity:1;fill-rule:nonzero;stroke:none"
       d="m 1472.767,939.0329 12.633,0 0,-3.048 -17.003,0 0,3.048 c 1.358,1.395 3.231,3.305 5.619,5.729 2.35,2.387 3.856,3.93 4.48,4.628 1.175,1.285 1.983,2.387 2.424,3.305 0.441,0.881 0.698,1.799 0.698,2.681 0,1.396 -0.514,2.571 -1.506,3.452 -0.992,0.881 -2.277,1.359 -3.893,1.359 -1.138,0 -2.35,-0.22 -3.599,-0.588 -1.249,-0.404 -2.608,-0.991 -4.04,-1.799 l 0,3.672 c 1.469,0.588 2.828,1.029 4.077,1.322 1.249,0.294 2.424,0.441 3.489,0.441 2.754,0 4.958,-0.698 6.61,-2.093 1.653,-1.396 2.498,-3.232 2.498,-5.546 0,-1.102 -0.221,-2.167 -0.625,-3.122 -0.404,-0.991 -1.138,-2.166 -2.24,-3.488 -0.294,-0.368 -1.248,-1.359 -2.865,-3.012 -1.616,-1.653 -3.856,-3.966 -6.757,-6.941" /><path
       inkscape:connector-curvature="0"
       id="path4552"
       style="fill:#231f20;fill-opacity:1;fill-rule:nonzero;stroke:none"
       d="m 1525.3512,960.2969 c -2.644,0 -4.738,-0.992 -6.28,-2.938 -1.543,-1.983 -2.314,-4.628 -2.314,-8.006 0,-3.379 0.771,-6.06 2.314,-8.006 1.542,-1.984 3.636,-2.938 6.28,-2.938 2.607,0 4.701,0.954 6.243,2.938 1.543,1.946 2.314,4.627 2.314,8.006 0,3.378 -0.771,6.023 -2.314,8.006 -1.542,1.946 -3.636,2.938 -6.243,2.938 m 5.068,-23.835 4.774,-5.178 -4.37,0 -3.966,4.297 c -0.404,0 -0.698,-0.037 -0.918,-0.037 -0.221,0 -0.404,-0.037 -0.588,-0.037 -3.783,0 -6.794,1.249 -9.035,3.746 -2.277,2.498 -3.378,5.84 -3.378,10.1 0,4.223 1.101,7.602 3.378,10.099 2.241,2.498 5.252,3.783 9.035,3.783 3.746,0 6.721,-1.285 8.998,-3.783 2.24,-2.497 3.378,-5.876 3.378,-10.099 0,-3.122 -0.624,-5.803 -1.873,-8.006 -1.248,-2.204 -3.084,-3.857 -5.435,-4.885" /><path
       inkscape:connector-curvature="0"
       id="path4556"
       style="fill:#231f20;fill-opacity:1;fill-rule:nonzero;stroke:none"
       d="m 1554.6949,950.4178 c 1.726,-0.367 3.085,-1.138 4.04,-2.314 0.955,-1.175 1.469,-2.644 1.469,-4.333 0,-2.645 -0.918,-4.701 -2.718,-6.134 -1.836,-1.432 -4.407,-2.13 -7.749,-2.13 -1.139,0 -2.314,0.111 -3.489,0.331 -1.175,0.184 -2.424,0.514 -3.672,0.955 l 0,3.489 c 0.991,-0.588 2.093,-1.029 3.305,-1.322 1.175,-0.294 2.424,-0.441 3.746,-0.441 2.277,0 4.003,0.441 5.178,1.322 1.175,0.881 1.8,2.203 1.8,3.93 0,1.542 -0.551,2.791 -1.653,3.672 -1.102,0.882 -2.644,1.359 -4.627,1.359 l -3.122,0 0,2.975 3.269,0 c 1.763,0 3.121,0.33 4.076,1.065 0.955,0.698 1.432,1.726 1.432,3.085 0,1.359 -0.514,2.424 -1.469,3.158 -0.991,0.735 -2.387,1.102 -4.186,1.102 -0.992,0 -2.057,-0.11 -3.196,-0.331 -1.138,-0.22 -2.387,-0.55 -3.745,-0.991 l 0,3.232 c 1.358,0.367 2.644,0.661 3.856,0.844 1.175,0.184 2.313,0.294 3.415,0.294 2.718,0 4.885,-0.624 6.501,-1.873 1.616,-1.249 2.424,-2.938 2.424,-5.068 0,-1.469 -0.441,-2.718 -1.286,-3.746 -0.845,-1.028 -2.057,-1.763 -3.599,-2.13" /><path
       inkscape:connector-curvature="0"
       id="path4560"
       style="fill:#231f20;fill-opacity:1;fill-rule:nonzero;stroke:none"
       d="m 1563.0686,962.7576 22.623,0 0,-3.048 -9.512,0 0,-23.725 -3.636,0 0,23.725 -9.475,0 0,3.048 z" /><path
       inkscape:connector-curvature="0"
       id="path4564"
       style="fill:#231f20;fill-opacity:1;fill-rule:nonzero;stroke:none"
       d="m 1592.6326,939.0329 12.633,0 0,-3.048 -17.004,0 0,3.048 c 1.359,1.395 3.232,3.305 5.62,5.729 2.35,2.387 3.856,3.93 4.48,4.628 1.175,1.285 1.983,2.387 2.424,3.305 0.441,0.881 0.698,1.799 0.698,2.681 0,1.396 -0.514,2.571 -1.506,3.452 -0.992,0.881 -2.277,1.359 -3.893,1.359 -1.139,0 -2.35,-0.22 -3.599,-0.588 -1.249,-0.404 -2.608,-0.991 -4.04,-1.799 l 0,3.672 c 1.469,0.588 2.828,1.029 4.077,1.322 1.248,0.294 2.423,0.441 3.489,0.441 2.754,0 4.958,-0.698 6.61,-2.093 1.653,-1.396 2.498,-3.232 2.498,-5.546 0,-1.102 -0.221,-2.167 -0.625,-3.122 -0.404,-0.991 -1.138,-2.166 -2.24,-3.488 -0.294,-0.368 -1.249,-1.359 -2.865,-3.012 -1.616,-1.653 -3.856,-3.966 -6.757,-6.941" /><path
       inkscape:connector-curvature="0"
       id="path4568"
       style="fill:#231f20;fill-opacity:1;fill-rule:nonzero;stroke:none"
       d="m 1693.1949,948.7651 0,-9.806 5.803,0 c 1.946,0 3.379,0.404 4.333,1.212 0.918,0.808 1.396,2.02 1.396,3.71 0,1.652 -0.478,2.864 -1.396,3.672 -0.954,0.808 -2.387,1.212 -4.333,1.212 l -5.803,0 m 0,11.018 0,-8.08 5.362,0 c 1.763,0 3.048,0.331 3.93,0.992 0.881,0.661 1.322,1.653 1.322,3.048 0,1.322 -0.441,2.35 -1.322,3.011 -0.882,0.661 -2.167,1.029 -3.93,1.029 l -5.362,0 m -3.636,2.975 9.255,0 c 2.755,0 4.885,-0.588 6.39,-1.726 1.469,-1.176 2.241,-2.792 2.241,-4.885 0,-1.653 -0.404,-2.975 -1.176,-3.93 -0.771,-0.955 -1.873,-1.579 -3.342,-1.799 1.763,-0.404 3.159,-1.212 4.15,-2.424 0.955,-1.212 1.469,-2.718 1.469,-4.517 0,-2.424 -0.844,-4.261 -2.46,-5.546 -1.616,-1.322 -3.93,-1.946 -6.905,-1.946 l -9.622,0 0,26.773" /><text
       transform="scale(1,-1)"
       style="font-style:normal;font-variant:normal;font-weight:normal;font-stretch:normal;font-size:61px;font-family:'Liberation Sans';-inkscape-font-specification:'Liberation Sans';writing-mode:lr-tb;fill:#231f20;fill-opacity:1;fill-rule:nonzero;stroke:none"
       id="text4678"
       x="926.32812"
       y="-901.08313"><tspan
         x="926.32812 963.17212"
         y="-901.08313"
         sodipodi:role="line"
         id="tspan4680">T2</tspan></text>
<text
       xml:space="preserve"
       style="font-style:normal;font-variant:normal;font-weight:normal;font-stretch:normal;font-size:56px;line-height:125%;font-family:'Liberation Sans';-inkscape-font-specification:'Liberation Sans';text-align:start;letter-spacing:0px;word-spacing:0px;text-anchor:start;fill:#000000;fill-opacity:1;stroke:none;stroke-width:1px;stroke-linecap:butt;stroke-linejoin:miter;stroke-opacity:1"
       x="927.18073"
       y="-141.78613"
       id="text4466"
       sodipodi:linespacing="125%"
       transform="scale(1,-1)"><tspan
         sodipodi:role="line"
         id="tspan4468"
         x="927.18073"
         y="-141.78613" /></text>
<text
       xml:space="preserve"
       style="font-style:normal;font-variant:normal;font-weight:normal;font-stretch:normal;font-size:56px;line-height:125%;font-family:'Liberation Sans';-inkscape-font-specification:'Liberation Sans';text-align:start;letter-spacing:0px;word-spacing:0px;text-anchor:start;fill:#000000;fill-opacity:1;stroke:none;stroke-width:1px;stroke-linecap:butt;stroke-linejoin:miter;stroke-opacity:1"
       x="815.18073"
       y="-76.585747"
       id="text4470"
       sodipodi:linespacing="125%"
       transform="scale(1,-1)"><tspan
         sodipodi:role="line"
         id="tspan4472"
         x="815.18073"
         y="-76.585747" /></text>
<text
       xml:space="preserve"
       style="font-style:normal;font-variant:normal;font-weight:normal;font-stretch:normal;font-size:40px;line-height:125%;font-family:'Liberation Sans';-inkscape-font-specification:'Liberation Sans';text-align:start;letter-spacing:0px;word-spacing:0px;text-anchor:start;fill:#000000;fill-opacity:1;stroke:none;stroke-width:1px;stroke-linecap:butt;stroke-linejoin:miter;stroke-opacity:1"
       x="336.42709"
       y="-768.25366"
       id="text4284"
       sodipodi:linespacing="125%"
       transform="scale(1,-1)"><tspan
         sodipodi:role="line"
         id="tspan4286"
         x="336.42709"
         y="-768.25366">VF</tspan></text>
<text
       xml:space="preserve"
       style="font-style:normal;font-variant:normal;font-weight:normal;font-stretch:normal;font-size:40px;line-height:125%;font-family:'Liberation Sans';-inkscape-font-specification:'Liberation Sans';text-align:start;letter-spacing:0px;word-spacing:0px;text-anchor:start;fill:#000000;fill-opacity:1;stroke:none;stroke-width:1px;stroke-linecap:butt;stroke-linejoin:miter;stroke-opacity:1"
       x="453.11731"
       y="-768.25366"
       id="text4288"
       sodipodi:linespacing="125%"
       transform="scale(1,-1)"><tspan
         sodipodi:role="line"
         id="tspan4290"
         x="453.11731"
         y="-768.25366">HF</tspan></text>
<text
       xml:space="preserve"
       style="font-style:normal;font-variant:normal;font-weight:normal;font-stretch:normal;font-size:40px;line-height:125%;font-family:'Liberation Sans';-inkscape-font-specification:'Liberation Sans';text-align:start;letter-spacing:0px;word-spacing:0px;text-anchor:start;fill:#000000;fill-opacity:1;stroke:none;stroke-width:1px;stroke-linecap:butt;stroke-linejoin:miter;stroke-opacity:1"
       x="572.59546"
       y="-768.25366"
       id="text4292"
       sodipodi:linespacing="125%"
       transform="scale(1,-1)"><tspan
         sodipodi:role="line"
         id="tspan4294"
         x="572.59546"
         y="-768.25366">VF</tspan></text>
<text
       xml:space="preserve"
       style="font-style:normal;font-variant:normal;font-weight:normal;font-stretch:normal;font-size:40px;line-height:125%;font-family:'Liberation Sans';-inkscape-font-specification:'Liberation Sans';text-align:start;letter-spacing:0px;word-spacing:0px;text-anchor:start;fill:#000000;fill-opacity:1;stroke:none;stroke-width:1px;stroke-linecap:butt;stroke-linejoin:miter;stroke-opacity:1"
       x="1299.5426"
       y="-768.25366"
       id="text4284-7"
       sodipodi:linespacing="125%"
       transform="scale(1,-1)"><tspan
         sodipodi:role="line"
         id="tspan4286-9"
         x="1299.5426"
         y="-768.25366">VF</tspan></text>
<text
       xml:space="preserve"
       style="font-style:normal;font-variant:normal;font-weight:normal;font-stretch:normal;font-size:40px;line-height:125%;font-family:'Liberation Sans';-inkscape-font-specification:'Liberation Sans';text-align:start;letter-spacing:0px;word-spacing:0px;text-anchor:start;fill:#000000;fill-opacity:1;stroke:none;stroke-width:1px;stroke-linecap:butt;stroke-linejoin:miter;stroke-opacity:1"
       x="1416.2328"
       y="-768.25366"
       id="text4288-9"
       sodipodi:linespacing="125%"
       transform="scale(1,-1)"><tspan
         sodipodi:role="line"
         id="tspan4290-3"
         x="1416.2328"
         y="-768.25366">HF</tspan></text>
<text
       xml:space="preserve"
       style="font-style:normal;font-variant:normal;font-weight:normal;font-stretch:normal;font-size:40px;line-height:125%;font-family:'Liberation Sans';-inkscape-font-specification:'Liberation Sans';text-align:start;letter-spacing:0px;word-spacing:0px;text-anchor:start;fill:#000000;fill-opacity:1;stroke:none;stroke-width:1px;stroke-linecap:butt;stroke-linejoin:miter;stroke-opacity:1"
       x="1535.7111"
       y="-768.25366"
       id="text4292-2"
       sodipodi:linespacing="125%"
       transform="scale(1,-1)"><tspan
         sodipodi:role="line"
         id="tspan4294-4"
         x="1535.7111"
         y="-768.25366">VF</tspan></text>
</g></svg>