<?xml version="1.0" encoding="UTF-8" standalone="no"?>
<!-- Created with Inkscape (http://www.inkscape.org/) -->

<svg
   xmlns:dc="http://purl.org/dc/elements/1.1/"
   xmlns:cc="http://creativecommons.org/ns#"
   xmlns:rdf="http://www.w3.org/1999/02/22-rdf-syntax-ns#"
   xmlns:svg="http://www.w3.org/2000/svg"
   xmlns="http://www.w3.org/2000/svg"
   xmlns:sodipodi="http://sodipodi.sourceforge.net/DTD/sodipodi-0.dtd"
   xmlns:inkscape="http://www.inkscape.org/namespaces/inkscape"
   id="svg4136"
   version="1.1"
   inkscape:version="0.91 r13725"
   xml:space="preserve"
   width="490.94342"
   height="185.34563"
   viewBox="0 0 490.94342 185.34563"
   sodipodi:docname="A-egde-focusing-vertical.svg"><metadata
     id="metadata4142"><rdf:RDF><cc:Work
         rdf:about=""><dc:format>image/svg+xml</dc:format><dc:type
           rdf:resource="http://purl.org/dc/dcmitype/StillImage" /><dc:title></dc:title></cc:Work></rdf:RDF></metadata><defs
     id="defs4140" /><sodipodi:namedview
     pagecolor="#ffffff"
     bordercolor="#666666"
     borderopacity="1"
     objecttolerance="10"
     gridtolerance="10"
     guidetolerance="10"
     inkscape:pageopacity="0"
     inkscape:pageshadow="2"
     inkscape:window-width="1920"
     inkscape:window-height="1017"
     id="namedview4138"
     showgrid="false"
     inkscape:snap-bbox="true"
     inkscape:bbox-paths="true"
     inkscape:bbox-nodes="true"
     inkscape:snap-bbox-edge-midpoints="true"
     inkscape:snap-bbox-midpoints="true"
     inkscape:object-paths="true"
     inkscape:object-nodes="true"
     inkscape:snap-smooth-nodes="true"
     inkscape:snap-midpoints="true"
     inkscape:snap-intersection-paths="true"
     inkscape:zoom="5.7847806"
     inkscape:cx="128.7614"
     inkscape:cy="99.582724"
     inkscape:window-x="0"
     inkscape:window-y="30"
     inkscape:window-maximized="1"
     inkscape:current-layer="g4146" /><g
     id="g4144"
     inkscape:groupmode="layer"
     inkscape:label="A-egde-focusing-vertical"
     transform="matrix(1.25,0,0,-1.25,0,185.34563)"><g
       id="g4146"><text
         transform="matrix(1,0,0,-1,83.373495,2.128904)"
         style="font-variant:normal;font-weight:normal;font-size:10px;font-family:'Liberation Serif';-inkscape-font-specification:LiberationSerif;writing-mode:lr-tb;fill:#000000;fill-opacity:1;fill-rule:nonzero;stroke:none"
         id="text4148"><tspan
           x="0 2.77 7.77 12.77 15.27 20.27 23.040001 27.440001"
           y="0"
           sodipodi:role="line"
           id="tspan4150">top view</tspan></text>
<path
         d="M 35.812,21.085 22.445,21.198 22.559,34.566 23.391,34.558 23.285,22.023 35.82,21.917 35.812,21.085 Z"
         style="fill:#000000;fill-opacity:1;fill-rule:nonzero;stroke:none"
         id="path4152"
         inkscape:connector-curvature="0" /><path
         d="m 35.816,22.991 3.903,-1.492 -3.903,-1.492 0,2.984 z"
         style="fill:#000000;fill-opacity:1;fill-rule:evenodd;stroke:none"
         id="path4154"
         inkscape:connector-curvature="0" /><path
         d="m 21.48,34.558 1.497,3.906 1.488,-3.902 -2.985,-0.004 z"
         style="fill:#000000;fill-opacity:1;fill-rule:evenodd;stroke:none"
         id="path4156"
         inkscape:connector-curvature="0" /><path
         d="m 17.133,16.812 -4.129,-0.66 2.637,3.242 1.492,-2.582 z"
         style="fill:#000000;fill-opacity:1;fill-rule:evenodd;stroke:none"
         id="path4158"
         inkscape:connector-curvature="0" /><path
         d="m 23.465,21.71 -6.875,-3.969 -0.36,0.621 6.875,3.973 0.36,-0.625 z"
         style="fill:#000000;fill-opacity:1;fill-rule:evenodd;stroke:none"
         id="path4160"
         inkscape:connector-curvature="0" /><text
         transform="matrix(1,0,0,-1,25.423614,36.093413)"
         style="font-style:italic;font-variant:normal;font-size:8.67358112px;font-family:'Liberation Serif';-inkscape-font-specification:LiberationSerif-Italic;writing-mode:lr-tb;fill:#000000;fill-opacity:1;fill-rule:nonzero;stroke:none"
         id="text4162"><tspan
           x="0"
           y="0"
           id="tspan4164">ξ</tspan><tspan
           x="15.217893"
           y="14.801509"
           id="tspan4166">ζ</tspan></text>
<text
         transform="matrix(1,0,0,-1,11.440787,10.339313)"
         style="font-style:italic;font-variant:normal;font-size:8.67358112px;font-family:'Liberation Serif';-inkscape-font-specification:LiberationSerif-Italic;writing-mode:lr-tb;fill:#000000;fill-opacity:1;fill-rule:nonzero;stroke:none"
         id="text4168"><tspan
           x="0"
           y="0"
           id="tspan4170">y</tspan></text>
<path
         d="m 227.648,24.331 4.125,0.66 -2.632,-3.242 -1.493,2.582 z"
         style="fill:#000000;fill-opacity:1;fill-rule:evenodd;stroke:none"
         id="path4172"
         inkscape:connector-curvature="0" /><path
         d="m 221.316,19.433 6.875,3.969 0.36,-0.622 -6.875,-3.972 -0.36,0.625 z"
         style="fill:#000000;fill-opacity:1;fill-rule:evenodd;stroke:none"
         id="path4174"
         inkscape:connector-curvature="0" /><path
         d="m 234.023,18.183 -13.367,0.113 0.11,13.367 0.836,-0.008 -0.106,-12.535 12.535,-0.105 -0.008,-0.832 z"
         style="fill:#000000;fill-opacity:1;fill-rule:nonzero;stroke:none"
         id="path4176"
         inkscape:connector-curvature="0" /><path
         d="m 234.027,20.093 3.903,-1.492 -3.903,-1.492 0,2.984 z"
         style="fill:#000000;fill-opacity:1;fill-rule:evenodd;stroke:none"
         id="path4178"
         inkscape:connector-curvature="0" /><path
         d="m 219.691,31.659 1.493,3.903 1.492,-3.903 -2.985,0 z"
         style="fill:#000000;fill-opacity:1;fill-rule:evenodd;stroke:none"
         id="path4180"
         inkscape:connector-curvature="0" /><text
         transform="matrix(1,0,0,-1,232.02784,23.979497)"
         style="font-style:italic;font-variant:normal;font-size:8.67358112px;font-family:'Liberation Serif';-inkscape-font-specification:LiberationSerif-Italic;writing-mode:lr-tb;fill:#000000;fill-opacity:1;fill-rule:nonzero;stroke:none"
         id="text4182"><tspan
           x="0"
           y="0"
           id="tspan4184">ξ</tspan><tspan
           x="6.8229771"
           y="5.5884576"
           id="tspan4186">ζ</tspan></text>
<text
         transform="matrix(1,0,0,-1,224.5262,32.330239)"
         style="font-style:italic;font-variant:normal;font-size:8.67358112px;font-family:'Liberation Serif';-inkscape-font-specification:LiberationSerif-Italic;writing-mode:lr-tb;fill:#000000;fill-opacity:1;fill-rule:nonzero;stroke:none"
         id="text4188"><tspan
           x="0"
           y="0"
           id="tspan4190">y</tspan></text>
<path
         d="m 200.914,143.265 c -35.766,0 -71.066,-8.086 -103.266,-23.645 L 97.605,47.702 c 30.004,21.871 66.176,33.653 103.309,33.653 l 0,61.91 z"
         style="fill:none;stroke:#000000;stroke-width:1.17960703;stroke-linecap:butt;stroke-linejoin:miter;stroke-miterlimit:4;stroke-dasharray:none;stroke-opacity:1"
         id="path4192"
         inkscape:connector-curvature="0" /><path
         d="m 97.727,84.659 c 31.375,18.114 66.964,27.649 103.187,27.649"
         style="fill:none;stroke:#000000;stroke-width:1.04083002;stroke-linecap:butt;stroke-linejoin:miter;stroke-miterlimit:4;stroke-dasharray:none;stroke-opacity:1"
         id="path4194"
         inkscape:connector-curvature="0" /><path
         d="m 97.621,109.277 0.024,0.015"
         style="fill:none;stroke:#000000;stroke-width:0.69388598;stroke-linecap:square;stroke-linejoin:miter;stroke-miterlimit:4;stroke-dasharray:none;stroke-opacity:1"
         id="path4196"
         inkscape:connector-curvature="0" /><path
         d="m 88.176,101.214 c 2.508,1.691 6.586,3.145 9.445,3.145"
         style="fill:none;stroke:#000000;stroke-width:0.69388598;stroke-linecap:butt;stroke-linejoin:miter;stroke-miterlimit:4;stroke-dasharray:none;stroke-opacity:1"
         id="path4198"
         inkscape:connector-curvature="0" /><text
         transform="matrix(1,0,0,-1,91.80895,96.748374)"
         style="font-style:italic;font-variant:normal;font-size:8.67358112px;font-family:'Liberation Serif';-inkscape-font-specification:LiberationSerif-Italic;writing-mode:lr-tb;fill:#000000;fill-opacity:1;fill-rule:nonzero;stroke:none"
         id="text4200"><tspan
           x="0"
           y="0"
           id="tspan4202">α</tspan></text>
<path
         d="M 97.625,84.839 79.312,116.562"
         style="fill:none;stroke:#000000;stroke-width:0.70515001;stroke-linecap:butt;stroke-linejoin:miter;stroke-miterlimit:4;stroke-dasharray:0.70515, 1.410301;stroke-dashoffset:0;stroke-opacity:1"
         id="path4204"
         inkscape:connector-curvature="0" /><path
         d="M 97.621,109.277 0.172,53.019"
         style="fill:none;stroke:#000000;stroke-width:0.69388598;stroke-linecap:butt;stroke-linejoin:miter;stroke-miterlimit:4;stroke-dasharray:none;stroke-opacity:1"
         id="path4206"
         inkscape:connector-curvature="0" /><path
         d="m 97.645,109.292 c 32.585,18.809 68.167,27.719 103.269,27.668"
         style="fill:none;stroke:#000000;stroke-width:0.69388598;stroke-linecap:butt;stroke-linejoin:miter;stroke-miterlimit:4;stroke-dasharray:none;stroke-opacity:1"
         id="path4208"
         inkscape:connector-curvature="0" /><text
         transform="matrix(1,0,0,-1,87.633929,109.40989)"
         style="font-style:italic;font-variant:normal;font-size:8.67358112px;font-family:'Liberation Serif';-inkscape-font-specification:LiberationSerif-Italic;writing-mode:lr-tb;fill:#000000;fill-opacity:1;fill-rule:nonzero;stroke:none"
         id="text4210"><tspan
           x="0"
           y="0"
           id="tspan4212">Δ</tspan></text>
<text
         transform="matrix(1,0,0,-1,92.716647,109.40989)"
         style="font-style:italic;font-variant:normal;font-size:8.67358112px;font-family:'Liberation Serif';-inkscape-font-specification:LiberationSerif-Italic;writing-mode:lr-tb;fill:#000000;fill-opacity:1;fill-rule:nonzero;stroke:none"
         id="text4214"><tspan
           x="0"
           y="0"
           id="tspan4216">l</tspan></text>
<path
         d="m 183.613,100.886 c 0,-2.098 -1.699,-3.801 -3.801,-3.801 -2.097,0 -3.8,1.703 -3.8,3.801 0,2.101 1.703,3.805 3.8,3.805 2.102,0 3.801,-1.704 3.801,-3.805 z"
         style="fill:none;stroke:#000000;stroke-width:0.66062099;stroke-linecap:butt;stroke-linejoin:miter;stroke-miterlimit:4;stroke-dasharray:none;stroke-opacity:1"
         id="path4218"
         inkscape:connector-curvature="0" /><path
         d="m 181.277,100.886 c 0,-0.805 -0.656,-1.461 -1.465,-1.461 -0.804,0 -1.46,0.656 -1.46,1.461 0,0.808 0.656,1.465 1.46,1.465 0.809,0 1.465,-0.657 1.465,-1.465 z"
         style="fill:#000000;fill-opacity:1;fill-rule:evenodd;stroke:none"
         id="path4220"
         inkscape:connector-curvature="0" /><path
         d="m 197.137,100.886 c 0,-2.098 -1.703,-3.801 -3.801,-3.801 -2.102,0 -3.801,1.703 -3.801,3.801 0,2.101 1.699,3.805 3.801,3.805 2.098,0 3.801,-1.704 3.801,-3.805 z"
         style="fill:none;stroke:#000000;stroke-width:0.66062099;stroke-linecap:butt;stroke-linejoin:miter;stroke-miterlimit:4;stroke-dasharray:none;stroke-opacity:1"
         id="path4222"
         inkscape:connector-curvature="0" /><path
         d="m 194.797,100.886 c 0,-0.805 -0.652,-1.461 -1.461,-1.461 -0.809,0 -1.461,0.656 -1.461,1.461 0,0.808 0.652,1.465 1.461,1.465 0.809,0 1.461,-0.657 1.461,-1.465 z"
         style="fill:#000000;fill-opacity:1;fill-rule:evenodd;stroke:none"
         id="path4224"
         inkscape:connector-curvature="0" /><path
         d="m 197.137,88.902 c 0,-2.102 -1.703,-3.805 -3.801,-3.805 -2.102,0 -3.801,1.703 -3.801,3.805 0,2.097 1.699,3.8 3.801,3.8 2.098,0 3.801,-1.703 3.801,-3.8 z"
         style="fill:none;stroke:#000000;stroke-width:0.66062099;stroke-linecap:butt;stroke-linejoin:miter;stroke-miterlimit:4;stroke-dasharray:none;stroke-opacity:1"
         id="path4226"
         inkscape:connector-curvature="0" /><path
         d="m 194.797,88.902 c 0,-0.809 -0.652,-1.465 -1.461,-1.465 -0.809,0 -1.461,0.656 -1.461,1.465 0,0.804 0.652,1.46 1.461,1.46 0.809,0 1.461,-0.656 1.461,-1.46 z"
         style="fill:#000000;fill-opacity:1;fill-rule:evenodd;stroke:none"
         id="path4228"
         inkscape:connector-curvature="0" /><path
         d="m 170.094,100.886 c 0,-2.098 -1.703,-3.801 -3.801,-3.801 -2.102,0 -3.801,1.703 -3.801,3.801 0,2.101 1.699,3.805 3.801,3.805 2.098,0 3.801,-1.704 3.801,-3.805 z"
         style="fill:none;stroke:#000000;stroke-width:0.66062099;stroke-linecap:butt;stroke-linejoin:miter;stroke-miterlimit:4;stroke-dasharray:none;stroke-opacity:1"
         id="path4230"
         inkscape:connector-curvature="0" /><path
         d="m 167.754,100.886 c 0,-0.805 -0.656,-1.461 -1.461,-1.461 -0.809,0 -1.465,0.656 -1.465,1.461 0,0.808 0.656,1.465 1.465,1.465 0.805,0 1.461,-0.657 1.461,-1.465 z"
         style="fill:#000000;fill-opacity:1;fill-rule:evenodd;stroke:none"
         id="path4232"
         inkscape:connector-curvature="0" /><path
         d="m 170.094,88.902 c 0,-2.102 -1.703,-3.805 -3.801,-3.805 -2.102,0 -3.801,1.703 -3.801,3.805 0,2.097 1.699,3.8 3.801,3.8 2.098,0 3.801,-1.703 3.801,-3.8 z"
         style="fill:none;stroke:#000000;stroke-width:0.66062099;stroke-linecap:butt;stroke-linejoin:miter;stroke-miterlimit:4;stroke-dasharray:none;stroke-opacity:1"
         id="path4234"
         inkscape:connector-curvature="0" /><path
         d="m 167.754,88.902 c 0,-0.809 -0.656,-1.465 -1.461,-1.465 -0.809,0 -1.465,0.656 -1.465,1.465 0,0.804 0.656,1.46 1.465,1.46 0.805,0 1.461,-0.656 1.461,-1.46 z"
         style="fill:#000000;fill-opacity:1;fill-rule:evenodd;stroke:none"
         id="path4236"
         inkscape:connector-curvature="0" /><path
         d="m 183.613,88.902 c 0,-2.102 -1.699,-3.805 -3.801,-3.805 -2.097,0 -3.8,1.703 -3.8,3.805 0,2.097 1.703,3.8 3.8,3.8 2.102,0 3.801,-1.703 3.801,-3.8 z"
         style="fill:none;stroke:#000000;stroke-width:0.66062099;stroke-linecap:butt;stroke-linejoin:miter;stroke-miterlimit:4;stroke-dasharray:none;stroke-opacity:1"
         id="path4238"
         inkscape:connector-curvature="0" /><path
         d="m 181.277,88.902 c 0,-0.809 -0.656,-1.465 -1.465,-1.465 -0.804,0 -1.46,0.656 -1.46,1.465 0,0.804 0.656,1.46 1.46,1.46 0.809,0 1.465,-0.656 1.465,-1.46 z"
         style="fill:#000000;fill-opacity:1;fill-rule:evenodd;stroke:none"
         id="path4240"
         inkscape:connector-curvature="0" /><text
         transform="matrix(1,0,0,-1,149.22231,92.253699)"
         style="font-style:italic;font-variant:normal;font-size:8.67358112px;font-family:'Liberation Serif';-inkscape-font-specification:LiberationSerif-Italic;writing-mode:lr-tb;fill:#000000;fill-opacity:1;fill-rule:nonzero;stroke:none"
         id="text4242"><tspan
           x="0"
           y="0"
           id="tspan4244">B</tspan></text>
<text
         transform="matrix(1,0,0,-1,154.52471,90.518983)"
         style="font-style:italic;font-variant:normal;font-size:4.51026201px;font-family:'Liberation Serif';-inkscape-font-specification:LiberationSerif-Italic;writing-mode:lr-tb;fill:#000000;fill-opacity:1;fill-rule:nonzero;stroke:none"
         id="text4246"><tspan
           x="0 1.7454714 2.8730369"
           y="0"
           sodipodi:role="line"
           id="tspan4248">y,0</tspan></text>
<path
         d="m 55.977,75.116 -12.95,0.106"
         style="fill:none;stroke:#000000;stroke-width:0.83266401;stroke-linecap:butt;stroke-linejoin:miter;stroke-miterlimit:4;stroke-dasharray:none;stroke-opacity:1"
         id="path4250"
         inkscape:connector-curvature="0" /><path
         d="m 55.977,76.609 3.902,-1.497 -3.899,-1.488 -0.003,2.985 z"
         style="fill:#000000;fill-opacity:1;fill-rule:evenodd;stroke:none"
         id="path4252"
         inkscape:connector-curvature="0" /><path
         d="m 55.977,54.3 -12.95,0.105"
         style="fill:none;stroke:#000000;stroke-width:0.83266401;stroke-linecap:butt;stroke-linejoin:miter;stroke-miterlimit:4;stroke-dasharray:none;stroke-opacity:1"
         id="path4254"
         inkscape:connector-curvature="0" /><path
         d="m 55.977,55.792 3.902,-1.496 -3.899,-1.488 -0.003,2.984 z"
         style="fill:#000000;fill-opacity:1;fill-rule:evenodd;stroke:none"
         id="path4256"
         inkscape:connector-curvature="0" /><path
         d="m 43.027,54.405 c 0,-2.421 -1.965,-4.39 -4.39,-4.39 -2.426,0 -4.391,1.969 -4.391,4.39 0,2.426 1.965,4.391 4.391,4.391 2.425,0 4.39,-1.965 4.39,-4.391 z"
         style="fill:#ffffff;fill-opacity:1;fill-rule:evenodd;stroke:#000000;stroke-width:0.76302302;stroke-linecap:butt;stroke-linejoin:miter;stroke-miterlimit:4;stroke-dasharray:none;stroke-opacity:1"
         id="path4258"
         inkscape:connector-curvature="0" /><path
         d="m 40.324,54.405 c 0,-0.929 -0.754,-1.687 -1.687,-1.687 -0.934,0 -1.692,0.758 -1.692,1.687 0,0.934 0.758,1.692 1.692,1.692 0.933,0 1.687,-0.758 1.687,-1.692 z"
         style="fill:#000000;fill-opacity:1;fill-rule:evenodd;stroke:none"
         id="path4260"
         inkscape:connector-curvature="0" /><g
         id="g4262"
         transform="matrix(-0.57735,-1,1,-0.57735,0,148.2765)"><path
           d="M 15.019,64.648 20.547,54.89"
           style="fill:none;stroke:#000000;stroke-width:0.72110802;stroke-linecap:butt;stroke-linejoin:miter;stroke-miterlimit:4;stroke-dasharray:none;stroke-opacity:1"
           id="path4264"
           inkscape:connector-curvature="0" /></g><path
         d="m 55.977,97.425 3.902,-1.492 -3.899,-1.492 -0.003,2.984 z"
         style="fill:#000000;fill-opacity:1;fill-rule:evenodd;stroke:none"
         id="path4266"
         inkscape:connector-curvature="0" /><path
         d="m 43.027,96.038 c 0,-2.422 -1.965,-4.39 -4.39,-4.39 -2.426,0 -4.391,1.968 -4.391,4.39 0,2.426 1.965,4.391 4.391,4.391 2.425,0 4.39,-1.965 4.39,-4.391 z"
         style="fill:#ffffff;fill-opacity:1;fill-rule:evenodd;stroke:#000000;stroke-width:0.76302302;stroke-linecap:butt;stroke-linejoin:miter;stroke-miterlimit:4;stroke-dasharray:none;stroke-opacity:1"
         id="path4268"
         inkscape:connector-curvature="0" /><path
         d="m 40.324,96.038 c 0,-0.929 -0.754,-1.687 -1.687,-1.687 -0.934,0 -1.692,0.758 -1.692,1.687 0,0.934 0.758,1.692 1.692,1.692 0.933,0 1.687,-0.758 1.687,-1.692 z"
         style="fill:#000000;fill-opacity:1;fill-rule:evenodd;stroke:none"
         id="path4270"
         inkscape:connector-curvature="0" /><path
         d="m 85.109,75.112 -7.382,0.114"
         style="fill:none;stroke:#000000;stroke-width:0.635261;stroke-linecap:butt;stroke-linejoin:miter;stroke-miterlimit:4;stroke-dasharray:none;stroke-opacity:1"
         id="path4272"
         inkscape:connector-curvature="0" /><path
         d="m 85.121,76.609 3.902,-1.497 -3.902,-1.488 0,2.985 z"
         style="fill:#000000;fill-opacity:1;fill-rule:evenodd;stroke:none"
         id="path4274"
         inkscape:connector-curvature="0" /><path
         d="m 77.723,75.222 c 0,-2.422 -1.969,-4.391 -4.391,-4.391 -2.426,0 -4.391,1.969 -4.391,4.391 0,2.426 1.965,4.39 4.391,4.39 2.422,0 4.391,-1.964 4.391,-4.39 z"
         style="fill:#ffffff;fill-opacity:1;fill-rule:evenodd;stroke:#000000;stroke-width:0.76302302;stroke-linecap:butt;stroke-linejoin:miter;stroke-miterlimit:4;stroke-dasharray:none;stroke-opacity:1"
         id="path4276"
         inkscape:connector-curvature="0" /><path
         d="m 75.02,75.222 c 0,-0.93 -0.758,-1.688 -1.688,-1.688 -0.934,0 -1.691,0.758 -1.691,1.688 0,0.933 0.757,1.691 1.691,1.691 0.93,0 1.688,-0.758 1.688,-1.691 z"
         style="fill:#000000;fill-opacity:1;fill-rule:evenodd;stroke:none"
         id="path4278"
         inkscape:connector-curvature="0" /><path
         d="m 85.109,54.296 -7.382,0.113"
         style="fill:none;stroke:#000000;stroke-width:0.635261;stroke-linecap:butt;stroke-linejoin:miter;stroke-miterlimit:4;stroke-dasharray:none;stroke-opacity:1"
         id="path4280"
         inkscape:connector-curvature="0" /><path
         d="m 85.121,55.792 3.902,-1.496 -3.902,-1.488 0,2.984 z"
         style="fill:#000000;fill-opacity:1;fill-rule:evenodd;stroke:none"
         id="path4282"
         inkscape:connector-curvature="0" /><path
         d="m 77.723,54.405 c 0,-2.421 -1.969,-4.39 -4.391,-4.39 -2.426,0 -4.391,1.969 -4.391,4.39 0,2.426 1.965,4.391 4.391,4.391 2.422,0 4.391,-1.965 4.391,-4.391 z"
         style="fill:#ffffff;fill-opacity:1;fill-rule:evenodd;stroke:#000000;stroke-width:0.76302302;stroke-linecap:butt;stroke-linejoin:miter;stroke-miterlimit:4;stroke-dasharray:none;stroke-opacity:1"
         id="path4284"
         inkscape:connector-curvature="0" /><path
         d="m 75.02,54.405 c 0,-0.929 -0.758,-1.687 -1.688,-1.687 -0.934,0 -1.691,0.758 -1.691,1.687 0,0.934 0.757,1.692 1.691,1.692 0.93,0 1.688,-0.758 1.688,-1.692 z"
         style="fill:#000000;fill-opacity:1;fill-rule:evenodd;stroke:none"
         id="path4286"
         inkscape:connector-curvature="0" /><path
         d="m 85.109,95.933 -7.382,0.109"
         style="fill:none;stroke:#000000;stroke-width:0.63526201;stroke-linecap:butt;stroke-linejoin:miter;stroke-miterlimit:4;stroke-dasharray:none;stroke-opacity:1"
         id="path4288"
         inkscape:connector-curvature="0" /><path
         d="m 85.121,97.425 3.902,-1.492 -3.902,-1.492 0,2.984 z"
         style="fill:#000000;fill-opacity:1;fill-rule:evenodd;stroke:none"
         id="path4290"
         inkscape:connector-curvature="0" /><path
         d="m 77.723,96.038 c 0,-2.422 -1.969,-4.39 -4.391,-4.39 -2.426,0 -4.391,1.968 -4.391,4.39 0,2.426 1.965,4.391 4.391,4.391 2.422,0 4.391,-1.965 4.391,-4.391 z"
         style="fill:#ffffff;fill-opacity:1;fill-rule:evenodd;stroke:#000000;stroke-width:0.76302302;stroke-linecap:butt;stroke-linejoin:miter;stroke-miterlimit:4;stroke-dasharray:none;stroke-opacity:1"
         id="path4292"
         inkscape:connector-curvature="0" /><path
         d="m 75.02,96.038 c 0,-0.929 -0.758,-1.687 -1.688,-1.687 -0.934,0 -1.691,0.758 -1.691,1.687 0,0.934 0.757,1.692 1.691,1.692 0.93,0 1.688,-0.758 1.688,-1.692 z"
         style="fill:#000000;fill-opacity:1;fill-rule:evenodd;stroke:none"
         id="path4294"
         inkscape:connector-curvature="0" /><text
         transform="matrix(1,0,0,-1,45.616826,67.043311)"
         style="font-style:italic;font-variant:normal;font-size:8.67358112px;font-family:'Liberation Serif';-inkscape-font-specification:LiberationSerif-Italic;writing-mode:lr-tb;fill:#000000;fill-opacity:1;fill-rule:nonzero;stroke:none"
         id="text4296"><tspan
           x="0"
           y="0"
           id="tspan4298">B</tspan></text>
<text
         transform="matrix(1,0,0,-1,50.91923,65.308595)"
         style="font-style:italic;font-variant:normal;font-size:4.51026201px;font-family:'Liberation Serif';-inkscape-font-specification:LiberationSerif-Italic;writing-mode:lr-tb;fill:#000000;fill-opacity:1;fill-rule:nonzero;stroke:none"
         id="text4300"><tspan
           x="0"
           y="0"
           id="tspan4302">ζ</tspan></text>
<path
         d="M 116.551,52.769 98.238,84.487"
         style="fill:none;stroke:#000000;stroke-width:0.70515001;stroke-linecap:butt;stroke-linejoin:miter;stroke-miterlimit:4;stroke-dasharray:0.70515, 1.410301;stroke-dashoffset:0;stroke-opacity:1"
         id="path4304"
         inkscape:connector-curvature="0" /><g
         id="g4306"
         transform="matrix(-0.57735,-1,1,-0.57735,0,148.2765)"><path
           d="M -0.593,55.634 4.932,45.875"
           style="fill:none;stroke:#000000;stroke-width:0.72110802;stroke-linecap:butt;stroke-linejoin:miter;stroke-miterlimit:4;stroke-dasharray:none;stroke-opacity:1"
           id="path4308"
           inkscape:connector-curvature="0" /></g><path
         d="m 55.977,118.241 3.902,-1.492 -3.899,-1.492 -0.003,2.984 z"
         style="fill:#000000;fill-opacity:1;fill-rule:evenodd;stroke:none"
         id="path4310"
         inkscape:connector-curvature="0" /><path
         d="m 43.027,116.859 c 0,-2.426 -1.965,-4.391 -4.39,-4.391 -2.426,0 -4.391,1.965 -4.391,4.391 0,2.421 1.965,4.39 4.391,4.39 2.425,0 4.39,-1.969 4.39,-4.39 z"
         style="fill:#ffffff;fill-opacity:1;fill-rule:evenodd;stroke:#000000;stroke-width:0.76302302;stroke-linecap:butt;stroke-linejoin:miter;stroke-miterlimit:4;stroke-dasharray:none;stroke-opacity:1"
         id="path4312"
         inkscape:connector-curvature="0" /><path
         d="m 40.324,116.859 c 0,-0.934 -0.754,-1.692 -1.687,-1.692 -0.934,0 -1.692,0.758 -1.692,1.692 0,0.929 0.758,1.687 1.692,1.687 0.933,0 1.687,-0.758 1.687,-1.687 z"
         style="fill:#000000;fill-opacity:1;fill-rule:evenodd;stroke:none"
         id="path4314"
         inkscape:connector-curvature="0" /><path
         d="m 85.109,116.749 -7.382,0.11"
         style="fill:none;stroke:#000000;stroke-width:0.63526201;stroke-linecap:butt;stroke-linejoin:miter;stroke-miterlimit:4;stroke-dasharray:none;stroke-opacity:1"
         id="path4316"
         inkscape:connector-curvature="0" /><path
         d="m 85.121,118.241 3.902,-1.492 -3.902,-1.492 0,2.984 z"
         style="fill:#000000;fill-opacity:1;fill-rule:evenodd;stroke:none"
         id="path4318"
         inkscape:connector-curvature="0" /><path
         d="m 77.723,116.859 c 0,-2.426 -1.969,-4.391 -4.391,-4.391 -2.426,0 -4.391,1.965 -4.391,4.391 0,2.421 1.965,4.39 4.391,4.39 2.422,0 4.391,-1.969 4.391,-4.39 z"
         style="fill:#ffffff;fill-opacity:1;fill-rule:evenodd;stroke:#000000;stroke-width:0.76302302;stroke-linecap:butt;stroke-linejoin:miter;stroke-miterlimit:4;stroke-dasharray:none;stroke-opacity:1"
         id="path4320"
         inkscape:connector-curvature="0" /><path
         d="m 75.02,116.859 c 0,-0.934 -0.758,-1.692 -1.688,-1.692 -0.934,0 -1.691,0.758 -1.691,1.692 0,0.929 0.757,1.687 1.691,1.687 0.93,0 1.688,-0.758 1.688,-1.687 z"
         style="fill:#000000;fill-opacity:1;fill-rule:evenodd;stroke:none"
         id="path4322"
         inkscape:connector-curvature="0" /><text
         transform="matrix(1,0,0,-1,285.47501,1.473962)"
         style="font-variant:normal;font-weight:normal;font-size:10px;font-family:'Liberation Serif';-inkscape-font-specification:LiberationSerif;writing-mode:lr-tb;fill:#000000;fill-opacity:1;fill-rule:nonzero;stroke:none"
         id="text4324"><tspan
           x="0 3.8900001 6.6599998 11.66 16.09 18.59 23.59 26.33 30.76"
           y="0"
           sodipodi:role="line"
           id="tspan4326">side view</tspan></text>
<path
         d="m 273.734,147.8 112.414,0 0,-15.52 -112.414,0 0,15.52 z"
         style="fill:none;stroke:#000000;stroke-width:0.95498002;stroke-linecap:butt;stroke-linejoin:miter;stroke-miterlimit:10;stroke-dasharray:none;stroke-opacity:1"
         id="path4328"
         inkscape:connector-curvature="0" /><path
         d="m 273.734,55.011 112.414,0 0,-15.523 -112.414,0 0,15.523 z"
         style="fill:none;stroke:#000000;stroke-width:0.95498002;stroke-linecap:butt;stroke-linejoin:miter;stroke-miterlimit:10;stroke-dasharray:none;stroke-opacity:1"
         id="path4330"
         inkscape:connector-curvature="0" /><path
         d="m 350.355,55.019 0,73.832 -0.585,0 0,-73.832 0.585,0 z m 1.465,73.246 -1.758,3.535 -1.757,-3.535 3.515,0 z"
         style="fill:#000000;fill-opacity:1;fill-rule:nonzero;stroke:none"
         id="path4332"
         inkscape:connector-curvature="0" /><path
         d="m 319.188,55.019 0,73.832 -0.586,0 0,-73.832 0.586,0 z m 1.464,73.246 -1.757,3.535 -1.758,-3.535 3.515,0 z"
         style="fill:#000000;fill-opacity:1;fill-rule:nonzero;stroke:none"
         id="path4334"
         inkscape:connector-curvature="0" /><path
         d="m 379.414,54.808 0,73.761 -0.586,0 0,-73.761 0.586,0 z m 1.465,73.172 -1.758,3.539 -1.762,-3.539 3.52,0 z"
         style="fill:#000000;fill-opacity:1;fill-rule:nonzero;stroke:none"
         id="path4336"
         inkscape:connector-curvature="0" /><path
         d="m 290.621,55.019 0,73.832 -0.586,0 0,-73.832 0.586,0 z m 1.469,73.246 -1.762,3.535 -1.758,-3.535 3.52,0 z"
         style="fill:#000000;fill-opacity:1;fill-rule:nonzero;stroke:none"
         id="path4338"
         inkscape:connector-curvature="0" /><path
         d="m 275.793,54.808 -1.605,2.617 -1.59,2.613 -1.559,2.614 -1.512,2.605 -1.468,2.582 -1.395,2.59 -1.312,2.57 -0.622,1.285 -0.597,1.282 -0.571,1.273 -0.542,1.277 -0.512,1.266 -0.488,1.27 -0.45,1.265 -0.418,1.258 -0.375,1.262 -0.343,1.246 -0.301,1.254 -0.266,1.246 -0.222,1.238 -0.168,1.234 -0.137,1.235 -0.082,1.23 -0.035,1.223 0.019,1.215 0.07,1.219 0.122,1.203 0.171,1.199 0.215,1.195 0.274,1.188 0.308,1.183 0.36,1.168 0.398,1.172 0.434,1.164 0.472,1.156 0.516,1.157 0.555,1.144 0.574,1.145 0.613,1.136 0.645,1.137 0.676,1.129 0.699,1.125 0.726,1.129 1.516,2.23 1.602,2.227 1.671,2.219 1.731,2.211 1.769,2.199 1.766,2.144 0.449,-0.363 -1.758,-2.144 -1.765,-2.196 -1.723,-2.199 -1.66,-2.207 -1.594,-2.207 -1.512,-2.227 -0.714,-1.117 -0.7,-1.121 -0.668,-1.117 -0.64,-1.125 -0.602,-1.125 -0.574,-1.129 -0.539,-1.137 -0.512,-1.132 -0.468,-1.145 -0.43,-1.144 -0.391,-1.157 -0.351,-1.152 -0.313,-1.16 -0.258,-1.164 -0.214,-1.168 -0.172,-1.18 -0.118,-1.18 -0.07,-1.187 -0.019,-1.195 0.035,-1.207 0.078,-1.204 0.137,-1.211 0.168,-1.218 0.218,-1.223 0.258,-1.227 0.293,-1.234 0.344,-1.234 0.371,-1.246 0.41,-1.246 0.445,-1.254 0.481,-1.258 0.512,-1.258 0.539,-1.262 0.566,-1.269 0.594,-1.27 0.613,-1.281 1.309,-2.555 1.394,-2.578 1.457,-2.586 1.512,-2.594 1.555,-2.605 1.593,-2.613 1.606,-2.617 -0.504,-0.301 z m -0.176,75.406 3.59,1.586 -0.867,-3.789 -2.723,2.203 z"
         style="fill:#000000;fill-opacity:1;fill-rule:nonzero;stroke:none"
         id="path4340"
         inkscape:connector-curvature="0" /><path
         inkscape:connector-curvature="0"
         id="path4467"
         style="font-style:italic;font-variant:normal;font-weight:bold;font-size:medium;font-family:'Liberation Serif';-inkscape-font-specification:LiberationSerif-BoldItalic;writing-mode:lr-tb;fill:#000000;fill-opacity:1;fill-rule:nonzero;stroke:none"
         d="m 212.68829,86.031973 -0.0684,-0.356445 -1.92383,0 0.0684,0.356445 0.50293,0.131836 3.26172,6.113281 1.17187,0 1.24024,-6.113281 0.53223,-0.131836 -0.0684,-0.356445 -2.68067,0 0.0684,0.356445 0.67383,0.131836 -0.29785,1.694336 -2.30469,0 -0.89844,-1.694336 0.72266,-0.131836 z m 1.88965,5.102539 -1.44043,-2.739257 1.93359,0 -0.49316,2.739257 z" /><path
         inkscape:connector-curvature="0"
         id="path4469"
         style="font-style:italic;font-variant:normal;font-weight:bold;font-size:medium;font-family:'Liberation Serif';-inkscape-font-specification:LiberationSerif-BoldItalic;writing-mode:lr-tb;fill:#000000;fill-opacity:1;fill-rule:nonzero;stroke:none"
         d="m 214.00729,122.54935 q 0.75684,0 1.14746,0.32226 0.39551,0.32227 0.39551,1.00098 0,0.46387 -0.29785,0.70801 -0.29297,0.24902 -0.86426,0.24902 l -0.43457,0 -0.40527,-2.28027 0.45898,0 z m -0.1123,-3.22266 q 0.4541,0 0.75684,0.10254 0.30761,0.10254 0.49316,0.29297 0.18555,0.19531 0.26367,0.46386 0.083,0.27344 0.083,0.61036 0,0.32226 -0.10742,0.55175 -0.10254,0.2295 -0.29785,0.37598 -0.19043,0.15137 -0.46387,0.21973 -0.27344,0.0684 -0.61035,0.0684 l -0.55664,0 -0.46875,-2.65625 q 0.17089,-0.01 0.33203,-0.0147 0.1416,-0.01 0.29785,-0.0147 0.15625,0 0.27832,0 z m -0.0293,-0.53711 q -0.26855,0 -0.4834,0.005 -0.20996,0.005 -0.40527,0.01 -0.19043,0.005 -0.38086,0.01 -0.19043,0.005 -0.41504,0.005 l -1.57226,0 0.0586,0.35644 0.86914,0.13184 0.98145,5.57617 -0.82032,0.12696 0.0684,0.35644 2.86133,0 q 0.64941,0 1.09863,-0.10254 0.45411,-0.10254 0.73731,-0.28808 0.2832,-0.18555 0.41015,-0.44922 0.12696,-0.26367 0.12696,-0.59082 0,-0.3711 -0.12207,-0.6543 -0.12207,-0.27832 -0.3418,-0.47852 -0.21973,-0.19531 -0.52246,-0.31738 -0.30273,-0.12207 -0.65918,-0.1709 0.33691,-0.0293 0.625,-0.1416 0.29297,-0.10742 0.50293,-0.29785 0.21484,-0.19043 0.33691,-0.46387 0.12207,-0.26855 0.12207,-0.62011 0,-1.02051 -0.77148,-1.51368 -0.7666,-0.48828 -2.30469,-0.48828 z" /><path
         inkscape:connector-curvature="0"
         id="path4471"
         style="font-style:italic;font-variant:normal;font-weight:bold;font-size:medium;font-family:'Liberation Serif';-inkscape-font-specification:LiberationSerif-BoldItalic;writing-mode:lr-tb;fill:#000000;fill-opacity:1;fill-rule:nonzero;stroke:none"
         d="m 333.51722,118.50273 q -0.71777,0 -1.26465,0.19043 -0.54687,0.19531 -0.91796,0.54687 -0.36621,0.35645 -0.55664,0.84961 -0.19043,0.49805 -0.19043,1.10352 0,0.94238 0.30273,1.68945 0.30762,0.75196 0.85449,1.26953 0.54688,0.51758 1.29883,0.79102 0.75684,0.27832 1.65527,0.27832 0.72266,0 1.28418,-0.0781 0.56153,-0.0781 1.02539,-0.17578 l -0.25878,-1.64551 -0.41016,0 0,0.94727 q -0.26367,0.20996 -0.63965,0.32226 -0.37109,0.11719 -0.78125,0.11719 -0.60059,0 -1.11328,-0.25391 -0.5127,-0.24902 -0.88867,-0.71777 -0.37598,-0.46387 -0.59082,-1.12305 -0.20996,-0.65429 -0.20996,-1.46484 0,-0.46387 0.10254,-0.85938 0.10253,-0.39062 0.3125,-0.67871 0.20996,-0.2832 0.53222,-0.44433 0.32227,-0.16114 0.7666,-0.16114 0.26856,0 0.52246,0.0391 0.25879,0.0439 0.4834,0.11231 0.22949,0.0684 0.41504,0.15625 0.19043,0.0879 0.32227,0.18554 l 0.37597,1.07422 0.41504,0 -0.32226,-1.66015 q -0.23926,-0.0781 -0.53711,-0.15137 -0.29297,-0.0732 -0.62012,-0.13184 -0.32715,-0.0586 -0.67383,-0.0928 -0.34668,-0.0342 -0.69336,-0.0342 z" /><text
         transform="matrix(1,0,0,-1,252.5027,134.24428)"
         style="font-style:italic;font-variant:normal;font-size:10px;font-family:'Liberation Serif';-inkscape-font-specification:LiberationSerif-Italic;writing-mode:lr-tb;fill:#000000;fill-opacity:1;fill-rule:nonzero;stroke:none"
         id="text4350"><tspan
           x="0"
           y="0"
           id="tspan4352">B</tspan></text>
<text
         transform="matrix(1,0,0,-1,258.61597,132.24427)"
         style="font-style:italic;font-variant:normal;font-size:5.19999981px;font-family:'Liberation Serif';-inkscape-font-specification:LiberationSerif-Italic;writing-mode:lr-tb;fill:#000000;fill-opacity:1;fill-rule:nonzero;stroke:none"
         id="text4354"><tspan
           x="0"
           y="0"
           id="tspan4356">y</tspan></text>
<text
         transform="matrix(1,0,0,-1,275.02363,108.04671)"
         style="font-style:italic;font-variant:normal;font-size:10px;font-family:'Liberation Serif';-inkscape-font-specification:LiberationSerif-Italic;writing-mode:lr-tb;fill:#000000;fill-opacity:1;fill-rule:nonzero;stroke:none"
         id="text4358"><tspan
           x="0"
           y="0"
           id="tspan4360">B</tspan></text>
<text
         transform="matrix(1,0,0,-1,281.13691,106.04671)"
         style="font-style:italic;font-variant:normal;font-size:5.19999981px;font-family:'Liberation Serif';-inkscape-font-specification:LiberationSerif-Italic;writing-mode:lr-tb;fill:#000000;fill-opacity:1;fill-rule:nonzero;stroke:none"
         id="text4362"><tspan
           x="0"
           y="0"
           id="tspan4364">ζ</tspan></text>
<text
         transform="matrix(1,0,0,-1,380.78638,92.725872)"
         style="font-style:italic;font-variant:normal;font-size:10px;font-family:'Liberation Serif';-inkscape-font-specification:LiberationSerif-Italic;writing-mode:lr-tb;fill:#000000;fill-opacity:1;fill-rule:nonzero;stroke:none"
         id="text4366"><tspan
           x="0"
           y="0"
           id="tspan4368">B</tspan></text>
<text
         transform="matrix(1,0,0,-1,386.89967,90.725872)"
         style="font-style:italic;font-variant:normal;font-size:5.19999981px;font-family:'Liberation Serif';-inkscape-font-specification:LiberationSerif-Italic;writing-mode:lr-tb;fill:#000000;fill-opacity:1;fill-rule:nonzero;stroke:none"
         id="text4370"><tspan
           x="0 2.0123999 3.3124001"
           y="0"
           sodipodi:role="line"
           id="tspan4372">y,0</tspan></text>
<text
         transform="matrix(1,0,0,-1,329.86286,85.206448)"
         style="font-style:italic;font-variant:normal;font-weight:bold;font-size:10px;font-family:'Liberation Serif';-inkscape-font-specification:LiberationSerif-BoldItalic;writing-mode:lr-tb;fill:#000000;fill-opacity:1;fill-rule:nonzero;stroke:none"
         id="text4374"><tspan
           x="0"
           y="0"
           id="tspan4376">D</tspan></text>
<path
         d="m 227.32,93.222 5.481,-17.281"
         style="fill:none;stroke:#000000;stroke-width:0.47999999;stroke-linecap:butt;stroke-linejoin:miter;stroke-miterlimit:4;stroke-dasharray:none;stroke-opacity:1"
         id="path4378"
         inkscape:connector-curvature="0" /><text
         transform="matrix(1,0,0,-1,231.4492,67.160389)"
         style="font-style:italic;font-variant:normal;font-size:10px;font-family:'Liberation Serif';-inkscape-font-specification:LiberationSerif-Italic;writing-mode:lr-tb;fill:#000000;fill-opacity:1;fill-rule:nonzero;stroke:none"
         id="text4380"><tspan
           x="0"
           y="0"
           id="tspan4382">B</tspan></text>
<text
         transform="matrix(1,0,0,-1,237.56248,65.160389)"
         style="font-style:italic;font-variant:normal;font-size:5.19999981px;font-family:'Liberation Serif';-inkscape-font-specification:LiberationSerif-Italic;writing-mode:lr-tb;fill:#000000;fill-opacity:1;fill-rule:nonzero;stroke:none"
         id="text4384"><tspan
           x="0"
           y="0"
           id="tspan4386">ζ</tspan></text>
<text
         transform="matrix(1,0,0,-1,242.16482,67.160389)"
         style="font-style:italic;font-variant:normal;font-size:10px;font-family:'Liberation Serif';-inkscape-font-specification:LiberationSerif-Italic;writing-mode:lr-tb;fill:#000000;fill-opacity:1;fill-rule:nonzero;stroke:none"
         id="text4388"><tspan
           x="0 6.7399998 9.2399998"
           y="0"
           sodipodi:role="line"
           id="tspan4390">= 0</tspan></text>
<text
         transform="matrix(1,0,0,-1,26.459256,60.799474)"
         style="font-style:italic;font-variant:normal;font-size:8.67358112px;font-family:'Liberation Serif';-inkscape-font-specification:LiberationSerif-Italic;writing-mode:lr-tb;fill:#a02c2c;fill-opacity:1;fill-rule:nonzero;stroke:none"
         id="text4392"><tspan
           x="0"
           y="0"
           id="tspan4394">z</tspan></text>
<path
         d="m 23.391,65.816 -11.633,-6.586 -6.59,11.632 0.727,0.411 6.175,-10.911 10.91,6.18 0.411,-0.726 z"
         style="fill:#a02c2c;fill-opacity:1;fill-rule:nonzero;stroke:none"
         id="path4396"
         inkscape:connector-curvature="0" /><path
         d="m 22.438,67.468 4.128,0.66 -2.632,-3.242 -1.496,2.582 z"
         style="fill:#a02c2c;fill-opacity:1;fill-rule:evenodd;stroke:none"
         id="path4398"
         inkscape:connector-curvature="0" /><path
         d="M 4.242,70.319 3.582,74.444 6.824,71.812 4.242,70.319 Z"
         style="fill:#a02c2c;fill-opacity:1;fill-rule:evenodd;stroke:none"
         id="path4400"
         inkscape:connector-curvature="0" /><text
         transform="matrix(1,0,0,-1,6.93012,74.446157)"
         style="font-style:italic;font-variant:normal;font-size:8.67358112px;font-family:'Liberation Serif';-inkscape-font-specification:LiberationSerif-Italic;writing-mode:lr-tb;fill:#a02c2c;fill-opacity:1;fill-rule:nonzero;stroke:none"
         id="text4402"><tspan
           x="0"
           y="0"
           id="tspan4404">x</tspan></text>
<path
         d="m 57.57,78.288 -3.41,5.899 0.723,0.414 3.41,-5.899 -0.723,-0.414 z"
         style="fill:#a02c2c;fill-opacity:1;fill-rule:evenodd;stroke:none"
         id="path4406"
         inkscape:connector-curvature="0" /><path
         d="m 59.219,79.241 0.66,-4.129 -3.242,2.637 2.582,1.492 z"
         style="fill:#a02c2c;fill-opacity:1;fill-rule:evenodd;stroke:none"
         id="path4408"
         inkscape:connector-curvature="0" /><text
         transform="matrix(1,0,0,-1,59.272962,79.962523)"
         style="font-style:italic;font-variant:normal;font-size:8.67358112px;font-family:'Liberation Serif';-inkscape-font-specification:LiberationSerif-Italic;writing-mode:lr-tb;fill:#a02c2c;fill-opacity:1;fill-rule:nonzero;stroke:none"
         id="text4410"><tspan
           x="0"
           y="0"
           id="tspan4412">B</tspan></text>
<text
         transform="matrix(1,0,0,-1,64.575366,78.227807)"
         style="font-style:italic;font-variant:normal;font-size:4.51026201px;font-family:'Liberation Serif';-inkscape-font-specification:LiberationSerif-Italic;writing-mode:lr-tb;fill:#a02c2c;fill-opacity:1;fill-rule:nonzero;stroke:none"
         id="text4414"><tspan
           x="0"
           y="0"
           id="tspan4416">x</tspan></text>
<path
         d="m 42.645,77.058 -0.415,0.719 8.704,5.027 0.414,-0.719 -8.703,-5.027 z"
         style="fill:#a02c2c;fill-opacity:1;fill-rule:evenodd;stroke:none"
         id="path4418"
         inkscape:connector-curvature="0" /><path
         d="m 50.395,83.737 4.128,0.657 -2.636,-3.239 -1.492,2.582 z"
         style="fill:#a02c2c;fill-opacity:1;fill-rule:evenodd;stroke:none"
         id="path4420"
         inkscape:connector-curvature="0" /><text
         transform="matrix(1,0,0,-1,40.18366,83.121665)"
         style="font-style:italic;font-variant:normal;font-size:8.67358112px;font-family:'Liberation Serif';-inkscape-font-specification:LiberationSerif-Italic;writing-mode:lr-tb;fill:#a02c2c;fill-opacity:1;fill-rule:nonzero;stroke:none"
         id="text4422"><tspan
           x="0"
           y="0"
           id="tspan4424">B</tspan></text>
<text
         transform="matrix(1,0,0,-1,45.486064,81.386949)"
         style="font-style:italic;font-variant:normal;font-size:4.51026201px;font-family:'Liberation Serif';-inkscape-font-specification:LiberationSerif-Italic;writing-mode:lr-tb;fill:#a02c2c;fill-opacity:1;fill-rule:nonzero;stroke:none"
         id="text4426"><tspan
           x="0"
           y="0"
           id="tspan4428">z</tspan></text>
<path
         d="m 265.668,117.917 8.27,0 0,-1.195 -8.27,0 0,1.195 z m 7.668,1.195 3.59,-1.793 -3.59,-1.792 0,3.585 z"
         style="fill:#a02c2c;fill-opacity:1;fill-rule:nonzero;stroke:none"
         id="path4430"
         inkscape:connector-curvature="0" /><path
         d="m 266.195,117.671 0,17.766 -1.195,0 0,-17.766 1.195,0 z m 1.196,17.168 -1.793,3.586 -1.793,-3.586 3.586,0 z"
         style="fill:#a02c2c;fill-opacity:1;fill-rule:nonzero;stroke:none"
         id="path4432"
         inkscape:connector-curvature="0" /><path
         d="m 218.551,93.62 1.597,0 0,-0.797 -1.597,0 0,0.797 z m 2.398,0 1.602,0 0,-0.797 -1.602,0 0,0.797 z m 2.403,0 1.597,0 0,-0.797 -1.597,0 0,0.797 z m 2.398,0 1.602,0 0,-0.797 -1.602,0 0,0.797 z m 2.398,0 1.602,0 0,-0.797 -1.602,0 0,0.797 z m 2.403,0 1.597,0 0,-0.797 -1.597,0 0,0.797 z m 2.398,0 1.602,0 0,-0.797 -1.602,0 0,0.797 z m 2.403,0 1.597,0 0,-0.797 -1.597,0 0,0.797 z m 2.398,0 1.602,0 0,-0.797 -1.602,0 0,0.797 z m 2.398,0 1.602,0 0,-0.797 -1.602,0 0,0.797 z m 2.403,0 1.597,0 0,-0.797 -1.597,0 0,0.797 z m 2.398,0 1.602,0 0,-0.797 -1.602,0 0,0.797 z m 2.403,0 1.597,0 0,-0.797 -1.597,0 0,0.797 z m 2.398,0 1.602,0 0,-0.797 -1.602,0 0,0.797 z m 2.398,0 1.602,0 0,-0.797 -1.602,0 0,0.797 z m 2.403,0 1.597,0 0,-0.797 -1.597,0 0,0.797 z m 2.398,0 1.602,0 0,-0.797 -1.602,0 0,0.797 z m 2.403,0 1.597,0 0,-0.797 -1.597,0 0,0.797 z m 2.398,0 1.602,0 0,-0.797 -1.602,0 0,0.797 z m 2.398,0 1.602,0 0,-0.797 -1.602,0 0,0.797 z m 2.403,0 1.597,0 0,-0.797 -1.597,0 0,0.797 z m 2.398,0 1.602,0 0,-0.797 -1.602,0 0,0.797 z m 2.403,0 1.597,0 0,-0.797 -1.597,0 0,0.797 z m 2.398,0 1.602,0 0,-0.797 -1.602,0 0,0.797 z m 2.398,0 1.602,0 0,-0.797 -1.602,0 0,0.797 z m 2.403,0 1.597,0 0,-0.797 -1.597,0 0,0.797 z m 2.398,0 1.602,0 0,-0.797 -1.602,0 0,0.797 z m 2.403,0 1.597,0 0,-0.797 -1.597,0 0,0.797 z m 2.398,0 1.602,0 0,-0.797 -1.602,0 0,0.797 z m 2.398,0 1.602,0 0,-0.797 -1.602,0 0,0.797 z m 2.403,0 1.597,0 0,-0.797 -1.597,0 0,0.797 z m 2.398,0 1.602,0 0,-0.797 -1.602,0 0,0.797 z m 2.403,0 1.597,0 0,-0.797 -1.597,0 0,0.797 z m 2.398,0 1.602,0 0,-0.797 -1.602,0 0,0.797 z m 2.398,0 1.602,0 0,-0.797 -1.602,0 0,0.797 z m 2.403,0 1.597,0 0,-0.797 -1.597,0 0,0.797 z m 2.398,0 1.602,0 0,-0.797 -1.602,0 0,0.797 z m 2.403,0 1.597,0 0,-0.797 -1.597,0 0,0.797 z m 2.398,0 1.602,0 0,-0.797 -1.602,0 0,0.797 z m 2.398,0 1.602,0 0,-0.797 -1.602,0 0,0.797 z m 2.403,0 1.597,0 0,-0.797 -1.597,0 0,0.797 z m 2.398,0 1.602,0 0,-0.797 -1.602,0 0,0.797 z m 2.403,0 1.597,0 0,-0.797 -1.597,0 0,0.797 z m 2.398,0 1.602,0 0,-0.797 -1.602,0 0,0.797 z m 2.398,0 1.602,0 0,-0.797 -1.602,0 0,0.797 z m 2.403,0 1.597,0 0,-0.797 -1.597,0 0,0.797 z m 2.398,-0.398 -0.113,0 0,1.312 0.801,0 0,-1.711 -0.688,0 0,0.399 z m -111.48,1.722 0.801,0 0,-1.601 -0.801,0 0,1.601 z m 111.367,1.989 0.801,0 0,-1.602 -0.801,0 0,1.602 z m -111.367,0.41 0.801,0 0,-1.598 -0.801,0 0,1.598 z m 111.367,1.988 0.801,0 0,-1.597 -0.801,0 0,1.597 z m -111.367,0.414 0.801,0 0,-1.601 -0.801,0 0,1.601 z m 111.367,1.989 0.801,0 0,-1.602 -0.801,0 0,1.602 z m -111.367,0.41 0.801,0 0,-1.598 -0.801,0 0,1.598 z m 111.367,1.988 0.801,0 0,-1.598 -0.801,0 0,1.598 z m -111.367,0.414 0.801,0 0,-1.602 -0.801,0 0,1.602 z m 111.367,1.988 0.801,0 0,-1.601 -0.801,0 0,1.601 z m -111.367,0.41 0.801,0 0,-1.601 -0.801,0 0,1.601 z m 111.367,1.989 0.801,0 0,-1.602 -0.801,0 0,1.602 z m -111.367,0.41 0.801,0 0,-1.598 -0.801,0 0,1.598 z m 111.367,1.988 0.801,0 0,-1.597 -0.801,0 0,1.597 z m -111.367,0.414 0.801,0 0,-1.601 -0.801,0 0,1.601 z m 111.367,1.989 0.801,0 0,-1.602 -0.801,0 0,1.602 z m -111.367,0.41 0.801,0 0,-1.598 -0.801,0 0,1.598 z m 111.367,1.988 0.801,0 0,-1.598 -0.801,0 0,1.598 z m -111.367,0.414 0.801,0 0,-1.602 -0.801,0 0,1.602 z m 111.367,0.621 -0.566,0 0,0.801 1.367,0 0,-1.035 -0.801,0 0,0.234 z m -110.965,0.176 -0.402,0 0,0.223 0.402,0 0,0.402 1.598,0 0,-0.801 -1.598,0 0,0.176 z m 2.399,0.625 1.601,0 0,-0.801 -1.601,0 0,0.801 z m 2.402,0 1.598,0 0,-0.801 -1.598,0 0,0.801 z m 2.398,0 1.602,0 0,-0.801 -1.602,0 0,0.801 z m 2.399,0 1.601,0 0,-0.801 -1.601,0 0,0.801 z m 2.402,0 1.598,0 0,-0.801 -1.598,0 0,0.801 z m 2.399,0 1.601,0 0,-0.801 -1.601,0 0,0.801 z m 2.402,0 1.598,0 0,-0.801 -1.598,0 0,0.801 z m 2.398,0 1.602,0 0,-0.801 -1.602,0 0,0.801 z m 2.399,0 1.601,0 0,-0.801 -1.601,0 0,0.801 z m 2.402,0 1.598,0 0,-0.801 -1.598,0 0,0.801 z m 2.399,0 1.601,0 0,-0.801 -1.601,0 0,0.801 z m 2.402,0 1.598,0 0,-0.801 -1.598,0 0,0.801 z m 2.398,0 1.602,0 0,-0.801 -1.602,0 0,0.801 z m 2.399,0 1.601,0 0,-0.801 -1.601,0 0,0.801 z m 2.402,0 1.598,0 0,-0.801 -1.598,0 0,0.801 z m 2.399,0 1.601,0 0,-0.801 -1.601,0 0,0.801 z m 2.402,0 1.598,0 0,-0.801 -1.598,0 0,0.801 z m 2.398,0 1.602,0 0,-0.801 -1.602,0 0,0.801 z m 2.399,0 1.601,0 0,-0.801 -1.601,0 0,0.801 z m 2.402,0 1.598,0 0,-0.801 -1.598,0 0,0.801 z m 2.399,0 1.601,0 0,-0.801 -1.601,0 0,0.801 z m 2.402,0 1.598,0 0,-0.801 -1.598,0 0,0.801 z m 2.398,0 1.602,0 0,-0.801 -1.602,0 0,0.801 z m 2.399,0 1.601,0 0,-0.801 -1.601,0 0,0.801 z m 2.402,0 1.598,0 0,-0.801 -1.598,0 0,0.801 z m 2.399,0 1.601,0 0,-0.801 -1.601,0 0,0.801 z m 2.402,0 1.598,0 0,-0.801 -1.598,0 0,0.801 z m 2.398,0 1.602,0 0,-0.801 -1.602,0 0,0.801 z m 2.399,0 1.601,0 0,-0.801 -1.601,0 0,0.801 z m 2.402,0 1.598,0 0,-0.801 -1.598,0 0,0.801 z m 2.399,0 1.601,0 0,-0.801 -1.601,0 0,0.801 z m 2.402,0 1.598,0 0,-0.801 -1.598,0 0,0.801 z m 2.398,0 1.602,0 0,-0.801 -1.602,0 0,0.801 z m 2.399,0 1.601,0 0,-0.801 -1.601,0 0,0.801 z m 2.402,0 1.598,0 0,-0.801 -1.598,0 0,0.801 z m 2.399,0 1.601,0 0,-0.801 -1.601,0 0,0.801 z m 2.402,0 1.598,0 0,-0.801 -1.598,0 0,0.801 z m 2.398,0 1.602,0 0,-0.801 -1.602,0 0,0.801 z m 2.399,0 1.601,0 0,-0.801 -1.601,0 0,0.801 z m 2.402,0 1.598,0 0,-0.801 -1.598,0 0,0.801 z m 2.399,0 1.601,0 0,-0.801 -1.601,0 0,0.801 z m 2.402,0 1.598,0 0,-0.801 -1.598,0 0,0.801 z m 2.398,0 1.602,0 0,-0.801 -1.602,0 0,0.801 z m 2.399,0 1.601,0 0,-0.801 -1.601,0 0,0.801 z m 2.402,0 1.598,0 0,-0.801 -1.598,0 0,0.801 z"
         style="fill:#a02c2c;fill-opacity:1;fill-rule:nonzero;stroke:none"
         id="path4434"
         inkscape:connector-curvature="0" /><path
         d="m 43.027,75.222 c 0,-2.422 -1.965,-4.391 -4.39,-4.391 -2.426,0 -4.391,1.969 -4.391,4.391 0,2.426 1.965,4.39 4.391,4.39 2.425,0 4.39,-1.964 4.39,-4.39 z"
         style="fill:#ffffff;fill-opacity:1;fill-rule:evenodd;stroke:#000000;stroke-width:0.76302302;stroke-linecap:butt;stroke-linejoin:miter;stroke-miterlimit:4;stroke-dasharray:none;stroke-opacity:1"
         id="path4436"
         inkscape:connector-curvature="0" /><path
         d="m 40.324,75.222 c 0,-0.93 -0.754,-1.688 -1.687,-1.688 -0.934,0 -1.692,0.758 -1.692,1.688 0,0.933 0.758,1.691 1.692,1.691 0.933,0 1.687,-0.758 1.687,-1.691 z"
         style="fill:#000000;fill-opacity:1;fill-rule:evenodd;stroke:none"
         id="path4438"
         inkscape:connector-curvature="0" /></g></g></svg>